<svg width="463" height="46" viewBox="0 0 463 46" fill="none" xmlns="http://www.w3.org/2000/svg">
<mask id="path-1-outside-1_1_2" maskUnits="userSpaceOnUse" x="-0.956001" y="-0.612" width="464" height="47" fill="black">
<rect fill="white" x="-0.956001" y="-0.612" width="464" height="47"/>
<path d="M0.099999 44.388V1.7H15.076C21.988 1.7 27.1293 3.492 30.5 7.076C33.8707 10.66 35.556 15.972 35.556 23.012C35.556 30.052 33.8707 35.3853 30.5 39.012C27.1293 42.596 21.988 44.388 15.076 44.388H0.099999ZM7.14 38.436H14.372C19.1507 38.436 22.6707 37.22 24.932 34.788C27.1933 32.3133 28.324 28.388 28.324 23.012C28.324 17.6787 27.1933 13.7747 24.932 11.3C22.6707 8.82533 19.1507 7.588 14.372 7.588H7.14V38.436ZM52.359 45.348C49.2017 45.348 46.4497 44.708 44.103 43.428C41.799 42.148 40.007 40.2493 38.727 37.732C37.4897 35.2147 36.871 32.1427 36.871 28.516C36.871 22.9267 38.1723 18.7027 40.775 15.844C43.4203 12.9427 47.0897 11.492 51.783 11.492C55.239 11.492 58.0337 12.26 60.167 13.796C62.3003 15.332 63.8363 17.4867 64.775 20.26C65.7563 22.9907 66.2257 26.1907 66.183 29.86H40.903L40.711 24.868H61.063L59.463 26.468C59.335 23.1827 58.6523 20.7933 57.415 19.3C56.1777 17.764 54.2363 16.996 51.591 16.996C49.8843 16.996 48.4337 17.3587 47.239 18.084C46.0443 18.7667 45.127 19.9613 44.487 21.668C43.8897 23.332 43.591 25.636 43.591 28.58C43.591 32.164 44.423 34.8947 46.087 36.772C47.751 38.6067 50.2043 39.524 53.447 39.524C54.8977 39.524 56.2417 39.396 57.479 39.14C58.759 38.884 59.9323 38.564 60.999 38.18C62.0657 37.7533 62.983 37.348 63.751 36.964V43.172C62.2577 43.812 60.5723 44.324 58.695 44.708C56.8177 45.1347 54.7057 45.348 52.359 45.348ZM75.446 44.388H68.79V0.0999985H75.446V44.388ZM91.251 45.22C88.3497 45.22 86.0457 44.452 84.339 42.916C82.675 41.38 81.843 39.1187 81.843 36.132V17.828H76.659V12.26H81.843V3.3H88.755V12.26H96.563V17.828H88.755V34.788C88.755 36.2813 89.011 37.412 89.523 38.18C90.0777 38.9053 91.0803 39.268 92.531 39.268C93.2563 39.268 93.9817 39.1827 94.707 39.012C95.4323 38.7987 96.051 38.5427 96.563 38.244V44.196C95.795 44.5373 94.9203 44.7933 93.939 44.964C93.0003 45.1347 92.1043 45.22 91.251 45.22ZM110.886 45.348C109.222 45.348 107.622 45.1773 106.086 44.836C104.55 44.5373 103.142 44.004 101.862 43.236C100.624 42.468 99.6215 41.4227 98.8535 40.1C98.1282 38.7347 97.7655 37.0493 97.7655 35.044C97.7655 32.6547 98.2348 30.692 99.1735 29.156C100.112 27.62 101.456 26.468 103.206 25.7C104.955 24.932 107.046 24.548 109.478 24.548C111.099 24.548 112.55 24.676 113.83 24.932C115.152 25.188 116.326 25.5507 117.35 26.02C118.416 26.4467 119.312 26.9373 120.038 27.492L120.742 31.908C119.803 31.268 118.544 30.7347 116.966 30.308C115.387 29.8387 113.68 29.604 111.846 29.604C109.414 29.604 107.558 30.0307 106.278 30.884C105.04 31.7373 104.422 33.0173 104.422 34.724C104.422 36.004 104.784 37.0493 105.51 37.86C106.235 38.628 107.131 39.204 108.198 39.588C109.307 39.9293 110.459 40.1 111.654 40.1C114.171 40.1 116.027 39.9293 117.222 39.588C118.416 39.2467 119.014 38.4573 119.014 37.22V23.78C119.014 21.5187 118.331 19.876 116.966 18.852C115.6 17.7853 113.659 17.252 111.142 17.252C109.35 17.252 107.494 17.5507 105.574 18.148C103.654 18.7027 102.075 19.492 100.838 20.516V14.244C102.032 13.4333 103.76 12.7933 106.022 12.324C108.326 11.812 110.694 11.556 113.126 11.556C114.32 11.556 115.515 11.684 116.71 11.94C117.947 12.1533 119.099 12.516 120.166 13.028C121.232 13.4973 122.171 14.1587 122.982 15.012C123.835 15.8227 124.496 16.8253 124.966 18.02C125.435 19.2147 125.67 20.6227 125.67 22.244V37.604C125.67 39.6947 125.008 41.316 123.686 42.468C122.406 43.5773 120.656 44.324 118.438 44.708C116.219 45.1347 113.702 45.348 110.886 45.348ZM156.436 45.092C154.303 45.092 152.425 44.964 150.804 44.708C149.183 44.4947 147.711 44.132 146.388 43.62C145.065 43.108 143.7 42.4893 142.292 41.764V34.724C143.956 36.0467 145.961 37.1347 148.308 37.988C150.697 38.8413 153.257 39.268 155.988 39.268C158.633 39.268 160.596 38.7347 161.876 37.668C163.199 36.5587 163.86 35.044 163.86 33.124C163.86 31.6307 163.369 30.436 162.388 29.54C161.449 28.6013 160.191 27.812 158.612 27.172C157.033 26.532 155.348 25.892 153.556 25.252C152.191 24.74 150.847 24.2067 149.524 23.652C148.201 23.0547 147.007 22.3293 145.94 21.476C144.873 20.58 144.02 19.4493 143.38 18.084C142.74 16.7187 142.42 15.0333 142.42 13.028C142.42 11.62 142.697 10.1907 143.252 8.74C143.807 7.28933 144.639 5.988 145.748 4.836C146.9 3.64133 148.393 2.70266 150.228 2.02C152.105 1.29467 154.345 0.931999 156.948 0.931999C158.655 0.931999 160.127 1.03867 161.364 1.252C162.644 1.46533 163.839 1.80666 164.948 2.276C166.1 2.70267 167.337 3.236 168.66 3.876V10.788C167.593 10.1053 166.505 9.46533 165.396 8.868C164.329 8.27067 163.156 7.78 161.876 7.396C160.596 7.012 159.167 6.79867 157.588 6.756C155.796 6.71333 154.324 6.92666 153.172 7.396C152.02 7.86533 151.145 8.52666 150.548 9.38C149.951 10.2333 149.652 11.2147 149.652 12.324C149.652 13.8173 150.015 15.012 150.74 15.908C151.508 16.7613 152.575 17.4867 153.94 18.084C155.305 18.6387 156.884 19.1933 158.676 19.748C160.255 20.26 161.791 20.836 163.284 21.476C164.777 22.116 166.1 22.9053 167.252 23.844C168.404 24.74 169.321 25.8707 170.004 27.236C170.729 28.6013 171.092 30.2867 171.092 32.292C171.092 34.5107 170.58 36.6013 169.556 38.564C168.575 40.484 166.996 42.0627 164.82 43.3C162.687 44.4947 159.892 45.092 156.436 45.092ZM174.257 44.388V12.452H180.977L181.041 44.388H174.257ZM174.065 7.14V1.06H181.233V7.14H174.065ZM197.026 45.22C194.125 45.22 191.821 44.452 190.114 42.916C188.45 41.38 187.618 39.1187 187.618 36.132V17.828H182.434V12.26H187.618V3.3H194.53V12.26H202.338V17.828H194.53V34.788C194.53 36.2813 194.786 37.412 195.298 38.18C195.853 38.9053 196.855 39.268 198.306 39.268C199.031 39.268 199.757 39.1827 200.482 39.012C201.207 38.7987 201.826 38.5427 202.338 38.244V44.196C201.57 44.5373 200.695 44.7933 199.714 44.964C198.775 45.1347 197.879 45.22 197.026 45.22ZM218.836 45.348C215.679 45.348 212.927 44.708 210.58 43.428C208.276 42.148 206.484 40.2493 205.204 37.732C203.967 35.2147 203.348 32.1427 203.348 28.516C203.348 22.9267 204.65 18.7027 207.252 15.844C209.898 12.9427 213.567 11.492 218.26 11.492C221.716 11.492 224.511 12.26 226.644 13.796C228.778 15.332 230.314 17.4867 231.252 20.26C232.234 22.9907 232.703 26.1907 232.66 29.86H207.38L207.188 24.868H227.54L225.94 26.468C225.812 23.1827 225.13 20.7933 223.892 19.3C222.655 17.764 220.714 16.996 218.068 16.996C216.362 16.996 214.911 17.3587 213.716 18.084C212.522 18.7667 211.604 19.9613 210.964 21.668C210.367 23.332 210.068 25.636 210.068 28.58C210.068 32.164 210.9 34.8947 212.564 36.772C214.228 38.6067 216.682 39.524 219.924 39.524C221.375 39.524 222.719 39.396 223.956 39.14C225.236 38.884 226.41 38.564 227.476 38.18C228.543 37.7533 229.46 37.348 230.228 36.964V43.172C228.735 43.812 227.05 44.324 225.172 44.708C223.295 45.1347 221.183 45.348 218.836 45.348ZM260.879 44.388L244.687 1.7H252.623L266.255 39.46H263.887L277.327 1.764L284.751 1.7L268.175 44.388H260.879ZM285.657 44.388V12.452H292.377L292.441 44.388H285.657ZM285.465 7.14V1.06H292.633V7.14H285.465ZM306.25 45.348C303.946 45.348 301.983 45.092 300.362 44.58C298.783 44.1107 297.226 43.5133 295.69 42.788V36.452C296.799 37.1347 297.887 37.7533 298.954 38.308C300.021 38.82 301.13 39.2253 302.282 39.524C303.477 39.8227 304.799 39.972 306.25 39.972C308.085 39.972 309.514 39.588 310.538 38.82C311.605 38.052 312.138 37.092 312.138 35.94C312.138 34.9587 311.797 34.1907 311.114 33.636C310.474 33.0813 309.642 32.612 308.618 32.228C307.594 31.844 306.527 31.46 305.418 31.076C304.266 30.7773 303.114 30.436 301.962 30.052C300.81 29.6253 299.743 29.0707 298.762 28.388C297.823 27.6627 297.055 26.7453 296.458 25.636C295.903 24.5267 295.626 23.1613 295.626 21.54C295.626 19.748 295.989 18.2333 296.714 16.996C297.439 15.716 298.378 14.692 299.53 13.924C300.725 13.1133 302.026 12.5373 303.434 12.196C304.885 11.812 306.293 11.62 307.658 11.62C309.919 11.6627 311.754 11.94 313.162 12.452C314.613 12.964 316.021 13.5827 317.386 14.308L317.45 20.068C315.914 19.2573 314.463 18.5533 313.098 17.956C311.733 17.3587 310.154 17.06 308.362 17.06C306.698 17.06 305.311 17.38 304.202 18.02C303.093 18.6173 302.538 19.5133 302.538 20.708C302.538 21.732 302.837 22.5427 303.434 23.14C304.074 23.7373 304.885 24.2067 305.866 24.548C306.89 24.8893 307.978 25.2307 309.13 25.572C310.197 25.9133 311.306 26.276 312.458 26.66C313.61 27.0013 314.677 27.5133 315.658 28.196C316.639 28.8787 317.429 29.7747 318.026 30.884C318.666 31.9933 318.986 33.444 318.986 35.236C318.943 37.6253 318.303 39.5667 317.066 41.06C315.871 42.5533 314.293 43.6413 312.33 44.324C310.367 45.0067 308.341 45.348 306.25 45.348ZM321.917 44.388V12.452H328.637L328.701 44.388H321.917ZM321.725 7.14V1.06H328.893V7.14H321.725ZM344.686 45.22C341.785 45.22 339.481 44.452 337.774 42.916C336.11 41.38 335.278 39.1187 335.278 36.132V17.828H330.094V12.26H335.278V3.3H342.19V12.26H349.998V17.828H342.19V34.788C342.19 36.2813 342.446 37.412 342.958 38.18C343.513 38.9053 344.515 39.268 345.966 39.268C346.691 39.268 347.417 39.1827 348.142 39.012C348.867 38.7987 349.486 38.5427 349.998 38.244V44.196C349.23 44.5373 348.355 44.7933 347.374 44.964C346.435 45.1347 345.539 45.22 344.686 45.22ZM376.172 44.388V7.652H362.348V1.7H397.036V7.652H383.212V44.388H376.172ZM405.88 45.348C400.675 45.348 396.792 43.876 394.232 40.932C391.715 37.988 390.456 33.7853 390.456 28.324C390.456 22.5213 391.757 18.276 394.36 15.588C397.005 12.8573 400.803 11.492 405.752 11.492C409.293 11.492 412.216 12.1533 414.52 13.476C416.824 14.756 418.531 16.6547 419.64 19.172C420.749 21.6893 421.304 24.74 421.304 28.324C421.304 33.7427 419.96 37.9453 417.272 40.932C414.627 43.876 410.829 45.348 405.88 45.348ZM405.816 39.652C407.992 39.652 409.72 39.1827 411 38.244C412.28 37.2627 413.197 35.9187 413.752 34.212C414.349 32.5053 414.648 30.5427 414.648 28.324C414.648 25.8493 414.349 23.78 413.752 22.116C413.155 20.452 412.216 19.2147 410.936 18.404C409.656 17.5507 407.949 17.124 405.816 17.124C403.683 17.124 401.976 17.572 400.696 18.468C399.416 19.364 398.499 20.644 397.944 22.308C397.389 23.972 397.112 25.9773 397.112 28.324C397.112 31.8653 397.773 34.6387 399.096 36.644C400.419 38.6493 402.659 39.652 405.816 39.652ZM437.76 45.348C432.555 45.348 428.672 43.876 426.112 40.932C423.595 37.988 422.336 33.7853 422.336 28.324C422.336 22.5213 423.637 18.276 426.24 15.588C428.885 12.8573 432.683 11.492 437.632 11.492C441.173 11.492 444.096 12.1533 446.4 13.476C448.704 14.756 450.411 16.6547 451.52 19.172C452.629 21.6893 453.184 24.74 453.184 28.324C453.184 33.7427 451.84 37.9453 449.152 40.932C446.507 43.876 442.709 45.348 437.76 45.348ZM437.696 39.652C439.872 39.652 441.6 39.1827 442.88 38.244C444.16 37.2627 445.077 35.9187 445.632 34.212C446.229 32.5053 446.528 30.5427 446.528 28.324C446.528 25.8493 446.229 23.78 445.632 22.116C445.035 20.452 444.096 19.2147 442.816 18.404C441.536 17.5507 439.829 17.124 437.696 17.124C435.563 17.124 433.856 17.572 432.576 18.468C431.296 19.364 430.379 20.644 429.824 22.308C429.269 23.972 428.992 25.9773 428.992 28.324C428.992 31.8653 429.653 34.6387 430.976 36.644C432.299 38.6493 434.539 39.652 437.696 39.652ZM462.536 44.388H455.88V0.0999985H462.536V44.388Z"/>
</mask>
<path d="M0.099999 44.388V1.7H15.076C21.988 1.7 27.1293 3.492 30.5 7.076C33.8707 10.66 35.556 15.972 35.556 23.012C35.556 30.052 33.8707 35.3853 30.5 39.012C27.1293 42.596 21.988 44.388 15.076 44.388H0.099999ZM7.14 38.436H14.372C19.1507 38.436 22.6707 37.22 24.932 34.788C27.1933 32.3133 28.324 28.388 28.324 23.012C28.324 17.6787 27.1933 13.7747 24.932 11.3C22.6707 8.82533 19.1507 7.588 14.372 7.588H7.14V38.436ZM52.359 45.348C49.2017 45.348 46.4497 44.708 44.103 43.428C41.799 42.148 40.007 40.2493 38.727 37.732C37.4897 35.2147 36.871 32.1427 36.871 28.516C36.871 22.9267 38.1723 18.7027 40.775 15.844C43.4203 12.9427 47.0897 11.492 51.783 11.492C55.239 11.492 58.0337 12.26 60.167 13.796C62.3003 15.332 63.8363 17.4867 64.775 20.26C65.7563 22.9907 66.2257 26.1907 66.183 29.86H40.903L40.711 24.868H61.063L59.463 26.468C59.335 23.1827 58.6523 20.7933 57.415 19.3C56.1777 17.764 54.2363 16.996 51.591 16.996C49.8843 16.996 48.4337 17.3587 47.239 18.084C46.0443 18.7667 45.127 19.9613 44.487 21.668C43.8897 23.332 43.591 25.636 43.591 28.58C43.591 32.164 44.423 34.8947 46.087 36.772C47.751 38.6067 50.2043 39.524 53.447 39.524C54.8977 39.524 56.2417 39.396 57.479 39.14C58.759 38.884 59.9323 38.564 60.999 38.18C62.0657 37.7533 62.983 37.348 63.751 36.964V43.172C62.2577 43.812 60.5723 44.324 58.695 44.708C56.8177 45.1347 54.7057 45.348 52.359 45.348ZM75.446 44.388H68.79V0.0999985H75.446V44.388ZM91.251 45.22C88.3497 45.22 86.0457 44.452 84.339 42.916C82.675 41.38 81.843 39.1187 81.843 36.132V17.828H76.659V12.26H81.843V3.3H88.755V12.26H96.563V17.828H88.755V34.788C88.755 36.2813 89.011 37.412 89.523 38.18C90.0777 38.9053 91.0803 39.268 92.531 39.268C93.2563 39.268 93.9817 39.1827 94.707 39.012C95.4323 38.7987 96.051 38.5427 96.563 38.244V44.196C95.795 44.5373 94.9203 44.7933 93.939 44.964C93.0003 45.1347 92.1043 45.22 91.251 45.22ZM110.886 45.348C109.222 45.348 107.622 45.1773 106.086 44.836C104.55 44.5373 103.142 44.004 101.862 43.236C100.624 42.468 99.6215 41.4227 98.8535 40.1C98.1282 38.7347 97.7655 37.0493 97.7655 35.044C97.7655 32.6547 98.2348 30.692 99.1735 29.156C100.112 27.62 101.456 26.468 103.206 25.7C104.955 24.932 107.046 24.548 109.478 24.548C111.099 24.548 112.55 24.676 113.83 24.932C115.152 25.188 116.326 25.5507 117.35 26.02C118.416 26.4467 119.312 26.9373 120.038 27.492L120.742 31.908C119.803 31.268 118.544 30.7347 116.966 30.308C115.387 29.8387 113.68 29.604 111.846 29.604C109.414 29.604 107.558 30.0307 106.278 30.884C105.04 31.7373 104.422 33.0173 104.422 34.724C104.422 36.004 104.784 37.0493 105.51 37.86C106.235 38.628 107.131 39.204 108.198 39.588C109.307 39.9293 110.459 40.1 111.654 40.1C114.171 40.1 116.027 39.9293 117.222 39.588C118.416 39.2467 119.014 38.4573 119.014 37.22V23.78C119.014 21.5187 118.331 19.876 116.966 18.852C115.6 17.7853 113.659 17.252 111.142 17.252C109.35 17.252 107.494 17.5507 105.574 18.148C103.654 18.7027 102.075 19.492 100.838 20.516V14.244C102.032 13.4333 103.76 12.7933 106.022 12.324C108.326 11.812 110.694 11.556 113.126 11.556C114.32 11.556 115.515 11.684 116.71 11.94C117.947 12.1533 119.099 12.516 120.166 13.028C121.232 13.4973 122.171 14.1587 122.982 15.012C123.835 15.8227 124.496 16.8253 124.966 18.02C125.435 19.2147 125.67 20.6227 125.67 22.244V37.604C125.67 39.6947 125.008 41.316 123.686 42.468C122.406 43.5773 120.656 44.324 118.438 44.708C116.219 45.1347 113.702 45.348 110.886 45.348ZM156.436 45.092C154.303 45.092 152.425 44.964 150.804 44.708C149.183 44.4947 147.711 44.132 146.388 43.62C145.065 43.108 143.7 42.4893 142.292 41.764V34.724C143.956 36.0467 145.961 37.1347 148.308 37.988C150.697 38.8413 153.257 39.268 155.988 39.268C158.633 39.268 160.596 38.7347 161.876 37.668C163.199 36.5587 163.86 35.044 163.86 33.124C163.86 31.6307 163.369 30.436 162.388 29.54C161.449 28.6013 160.191 27.812 158.612 27.172C157.033 26.532 155.348 25.892 153.556 25.252C152.191 24.74 150.847 24.2067 149.524 23.652C148.201 23.0547 147.007 22.3293 145.94 21.476C144.873 20.58 144.02 19.4493 143.38 18.084C142.74 16.7187 142.42 15.0333 142.42 13.028C142.42 11.62 142.697 10.1907 143.252 8.74C143.807 7.28933 144.639 5.988 145.748 4.836C146.9 3.64133 148.393 2.70266 150.228 2.02C152.105 1.29467 154.345 0.931999 156.948 0.931999C158.655 0.931999 160.127 1.03867 161.364 1.252C162.644 1.46533 163.839 1.80666 164.948 2.276C166.1 2.70267 167.337 3.236 168.66 3.876V10.788C167.593 10.1053 166.505 9.46533 165.396 8.868C164.329 8.27067 163.156 7.78 161.876 7.396C160.596 7.012 159.167 6.79867 157.588 6.756C155.796 6.71333 154.324 6.92666 153.172 7.396C152.02 7.86533 151.145 8.52666 150.548 9.38C149.951 10.2333 149.652 11.2147 149.652 12.324C149.652 13.8173 150.015 15.012 150.74 15.908C151.508 16.7613 152.575 17.4867 153.94 18.084C155.305 18.6387 156.884 19.1933 158.676 19.748C160.255 20.26 161.791 20.836 163.284 21.476C164.777 22.116 166.1 22.9053 167.252 23.844C168.404 24.74 169.321 25.8707 170.004 27.236C170.729 28.6013 171.092 30.2867 171.092 32.292C171.092 34.5107 170.58 36.6013 169.556 38.564C168.575 40.484 166.996 42.0627 164.82 43.3C162.687 44.4947 159.892 45.092 156.436 45.092ZM174.257 44.388V12.452H180.977L181.041 44.388H174.257ZM174.065 7.14V1.06H181.233V7.14H174.065ZM197.026 45.22C194.125 45.22 191.821 44.452 190.114 42.916C188.45 41.38 187.618 39.1187 187.618 36.132V17.828H182.434V12.26H187.618V3.3H194.53V12.26H202.338V17.828H194.53V34.788C194.53 36.2813 194.786 37.412 195.298 38.18C195.853 38.9053 196.855 39.268 198.306 39.268C199.031 39.268 199.757 39.1827 200.482 39.012C201.207 38.7987 201.826 38.5427 202.338 38.244V44.196C201.57 44.5373 200.695 44.7933 199.714 44.964C198.775 45.1347 197.879 45.22 197.026 45.22ZM218.836 45.348C215.679 45.348 212.927 44.708 210.58 43.428C208.276 42.148 206.484 40.2493 205.204 37.732C203.967 35.2147 203.348 32.1427 203.348 28.516C203.348 22.9267 204.65 18.7027 207.252 15.844C209.898 12.9427 213.567 11.492 218.26 11.492C221.716 11.492 224.511 12.26 226.644 13.796C228.778 15.332 230.314 17.4867 231.252 20.26C232.234 22.9907 232.703 26.1907 232.66 29.86H207.38L207.188 24.868H227.54L225.94 26.468C225.812 23.1827 225.13 20.7933 223.892 19.3C222.655 17.764 220.714 16.996 218.068 16.996C216.362 16.996 214.911 17.3587 213.716 18.084C212.522 18.7667 211.604 19.9613 210.964 21.668C210.367 23.332 210.068 25.636 210.068 28.58C210.068 32.164 210.9 34.8947 212.564 36.772C214.228 38.6067 216.682 39.524 219.924 39.524C221.375 39.524 222.719 39.396 223.956 39.14C225.236 38.884 226.41 38.564 227.476 38.18C228.543 37.7533 229.46 37.348 230.228 36.964V43.172C228.735 43.812 227.05 44.324 225.172 44.708C223.295 45.1347 221.183 45.348 218.836 45.348ZM260.879 44.388L244.687 1.7H252.623L266.255 39.46H263.887L277.327 1.764L284.751 1.7L268.175 44.388H260.879ZM285.657 44.388V12.452H292.377L292.441 44.388H285.657ZM285.465 7.14V1.06H292.633V7.14H285.465ZM306.25 45.348C303.946 45.348 301.983 45.092 300.362 44.58C298.783 44.1107 297.226 43.5133 295.69 42.788V36.452C296.799 37.1347 297.887 37.7533 298.954 38.308C300.021 38.82 301.13 39.2253 302.282 39.524C303.477 39.8227 304.799 39.972 306.25 39.972C308.085 39.972 309.514 39.588 310.538 38.82C311.605 38.052 312.138 37.092 312.138 35.94C312.138 34.9587 311.797 34.1907 311.114 33.636C310.474 33.0813 309.642 32.612 308.618 32.228C307.594 31.844 306.527 31.46 305.418 31.076C304.266 30.7773 303.114 30.436 301.962 30.052C300.81 29.6253 299.743 29.0707 298.762 28.388C297.823 27.6627 297.055 26.7453 296.458 25.636C295.903 24.5267 295.626 23.1613 295.626 21.54C295.626 19.748 295.989 18.2333 296.714 16.996C297.439 15.716 298.378 14.692 299.53 13.924C300.725 13.1133 302.026 12.5373 303.434 12.196C304.885 11.812 306.293 11.62 307.658 11.62C309.919 11.6627 311.754 11.94 313.162 12.452C314.613 12.964 316.021 13.5827 317.386 14.308L317.45 20.068C315.914 19.2573 314.463 18.5533 313.098 17.956C311.733 17.3587 310.154 17.06 308.362 17.06C306.698 17.06 305.311 17.38 304.202 18.02C303.093 18.6173 302.538 19.5133 302.538 20.708C302.538 21.732 302.837 22.5427 303.434 23.14C304.074 23.7373 304.885 24.2067 305.866 24.548C306.89 24.8893 307.978 25.2307 309.13 25.572C310.197 25.9133 311.306 26.276 312.458 26.66C313.61 27.0013 314.677 27.5133 315.658 28.196C316.639 28.8787 317.429 29.7747 318.026 30.884C318.666 31.9933 318.986 33.444 318.986 35.236C318.943 37.6253 318.303 39.5667 317.066 41.06C315.871 42.5533 314.293 43.6413 312.33 44.324C310.367 45.0067 308.341 45.348 306.25 45.348ZM321.917 44.388V12.452H328.637L328.701 44.388H321.917ZM321.725 7.14V1.06H328.893V7.14H321.725ZM344.686 45.22C341.785 45.22 339.481 44.452 337.774 42.916C336.11 41.38 335.278 39.1187 335.278 36.132V17.828H330.094V12.26H335.278V3.3H342.19V12.26H349.998V17.828H342.19V34.788C342.19 36.2813 342.446 37.412 342.958 38.18C343.513 38.9053 344.515 39.268 345.966 39.268C346.691 39.268 347.417 39.1827 348.142 39.012C348.867 38.7987 349.486 38.5427 349.998 38.244V44.196C349.23 44.5373 348.355 44.7933 347.374 44.964C346.435 45.1347 345.539 45.22 344.686 45.22ZM376.172 44.388V7.652H362.348V1.7H397.036V7.652H383.212V44.388H376.172ZM405.88 45.348C400.675 45.348 396.792 43.876 394.232 40.932C391.715 37.988 390.456 33.7853 390.456 28.324C390.456 22.5213 391.757 18.276 394.36 15.588C397.005 12.8573 400.803 11.492 405.752 11.492C409.293 11.492 412.216 12.1533 414.52 13.476C416.824 14.756 418.531 16.6547 419.64 19.172C420.749 21.6893 421.304 24.74 421.304 28.324C421.304 33.7427 419.96 37.9453 417.272 40.932C414.627 43.876 410.829 45.348 405.88 45.348ZM405.816 39.652C407.992 39.652 409.72 39.1827 411 38.244C412.28 37.2627 413.197 35.9187 413.752 34.212C414.349 32.5053 414.648 30.5427 414.648 28.324C414.648 25.8493 414.349 23.78 413.752 22.116C413.155 20.452 412.216 19.2147 410.936 18.404C409.656 17.5507 407.949 17.124 405.816 17.124C403.683 17.124 401.976 17.572 400.696 18.468C399.416 19.364 398.499 20.644 397.944 22.308C397.389 23.972 397.112 25.9773 397.112 28.324C397.112 31.8653 397.773 34.6387 399.096 36.644C400.419 38.6493 402.659 39.652 405.816 39.652ZM437.76 45.348C432.555 45.348 428.672 43.876 426.112 40.932C423.595 37.988 422.336 33.7853 422.336 28.324C422.336 22.5213 423.637 18.276 426.24 15.588C428.885 12.8573 432.683 11.492 437.632 11.492C441.173 11.492 444.096 12.1533 446.4 13.476C448.704 14.756 450.411 16.6547 451.52 19.172C452.629 21.6893 453.184 24.74 453.184 28.324C453.184 33.7427 451.84 37.9453 449.152 40.932C446.507 43.876 442.709 45.348 437.76 45.348ZM437.696 39.652C439.872 39.652 441.6 39.1827 442.88 38.244C444.16 37.2627 445.077 35.9187 445.632 34.212C446.229 32.5053 446.528 30.5427 446.528 28.324C446.528 25.8493 446.229 23.78 445.632 22.116C445.035 20.452 444.096 19.2147 442.816 18.404C441.536 17.5507 439.829 17.124 437.696 17.124C435.563 17.124 433.856 17.572 432.576 18.468C431.296 19.364 430.379 20.644 429.824 22.308C429.269 23.972 428.992 25.9773 428.992 28.324C428.992 31.8653 429.653 34.6387 430.976 36.644C432.299 38.6493 434.539 39.652 437.696 39.652ZM462.536 44.388H455.88V0.0999985H462.536V44.388Z" fill="#1E1E1E"/>
<path d="M0.099999 44.388H-9.53674e-07V44.488H0.099999V44.388ZM0.099999 1.7V1.6H-9.53674e-07V1.7H0.099999ZM30.5 7.076L30.4272 7.14451V7.14451L30.5 7.076ZM30.5 39.012L30.5728 39.0805L30.5732 39.0801L30.5 39.012ZM7.14 38.436H7.04V38.536H7.14V38.436ZM24.932 34.788L25.0052 34.8561L25.0058 34.8555L24.932 34.788ZM24.932 11.3L24.8582 11.3675V11.3675L24.932 11.3ZM7.14 7.588V7.488H7.04V7.588H7.14ZM0.099999 44.388H0.199999V1.7H0.099999H-9.53674e-07V44.388H0.099999ZM0.099999 1.7V1.8H15.076V1.7V1.6H0.099999V1.7ZM15.076 1.7V1.8C21.9718 1.8 27.082 3.58764 30.4272 7.14451L30.5 7.076L30.5728 7.00749C27.1767 3.39636 22.0042 1.6 15.076 1.6V1.7ZM30.5 7.076L30.4272 7.14451C33.7741 10.7033 35.456 15.9865 35.456 23.012H35.556H35.656C35.656 15.9575 33.9672 10.6167 30.5728 7.00749L30.5 7.076ZM35.556 23.012H35.456C35.456 30.0374 33.7741 35.3423 30.4268 38.9439L30.5 39.012L30.5732 39.0801C33.9672 35.4284 35.656 30.0666 35.656 23.012H35.556ZM30.5 39.012L30.4272 38.9435C27.082 42.5004 21.9718 44.288 15.076 44.288V44.388V44.488C22.0042 44.488 27.1767 42.6916 30.5728 39.0805L30.5 39.012ZM15.076 44.388V44.288H0.099999V44.388V44.488H15.076V44.388ZM7.14 38.436V38.536H14.372V38.436V38.336H7.14V38.436ZM14.372 38.436V38.536C19.1661 38.536 22.7179 37.316 25.0052 34.8561L24.932 34.788L24.8588 34.7199C22.6234 37.124 19.1353 38.336 14.372 38.336V38.436ZM24.932 34.788L25.0058 34.8555C27.2916 32.354 28.424 28.3987 28.424 23.012H28.324H28.224C28.224 28.3773 27.095 32.2727 24.8582 34.7205L24.932 34.788ZM28.324 23.012H28.424C28.424 17.6677 27.2915 13.7339 25.0058 11.2325L24.932 11.3L24.8582 11.3675C27.0951 13.8154 28.224 17.6896 28.224 23.012H28.324ZM24.932 11.3L25.0058 11.2325C22.7186 8.72957 19.1665 7.488 14.372 7.488V7.588V7.688C19.1348 7.688 22.6227 8.92109 24.8582 11.3675L24.932 11.3ZM14.372 7.588V7.488H7.14V7.588V7.688H14.372V7.588ZM7.14 7.588H7.04V38.436H7.14H7.24V7.588H7.14ZM44.103 43.428L44.0544 43.5154L44.0551 43.5158L44.103 43.428ZM38.727 37.732L38.6372 37.7761L38.6379 37.7773L38.727 37.732ZM40.775 15.844L40.7011 15.7766L40.7011 15.7767L40.775 15.844ZM60.167 13.796L60.2254 13.7148V13.7148L60.167 13.796ZM64.775 20.26L64.6803 20.2921L64.6809 20.2938L64.775 20.26ZM66.183 29.86V29.96H66.2818L66.283 29.8612L66.183 29.86ZM40.903 29.86L40.8031 29.8638L40.8068 29.96H40.903V29.86ZM40.711 24.868V24.768H40.6071L40.6111 24.8718L40.711 24.868ZM61.063 24.868L61.1337 24.9387L61.3044 24.768H61.063V24.868ZM59.463 26.468L59.3631 26.4719L59.372 26.7004L59.5337 26.5387L59.463 26.468ZM57.415 19.3L57.3371 19.3627L57.338 19.3638L57.415 19.3ZM47.239 18.084L47.2886 18.1709L47.2909 18.1695L47.239 18.084ZM44.487 21.668L44.3934 21.6329L44.3929 21.6342L44.487 21.668ZM46.087 36.772L46.0122 36.8383L46.0129 36.8392L46.087 36.772ZM57.479 39.14L57.4594 39.0419L57.4587 39.0421L57.479 39.14ZM60.999 38.18L61.0329 38.2741L61.0361 38.2729L60.999 38.18ZM63.751 36.964H63.851V36.8022L63.7063 36.8746L63.751 36.964ZM63.751 43.172L63.7904 43.2639L63.851 43.2379V43.172H63.751ZM58.695 44.708L58.675 44.61L58.6728 44.6105L58.695 44.708ZM52.359 45.348V45.248C49.2154 45.248 46.4804 44.6109 44.1509 43.3402L44.103 43.428L44.0551 43.5158C46.4189 44.8051 49.188 45.448 52.359 45.448V45.348ZM44.103 43.428L44.1516 43.3406C41.8662 42.071 40.0878 40.1876 38.8161 37.6867L38.727 37.732L38.6379 37.7773C39.9262 40.3111 41.7318 42.225 44.0544 43.5154L44.103 43.428ZM38.727 37.732L38.8167 37.6879C37.5878 35.1877 36.971 32.1317 36.971 28.516H36.871H36.771C36.771 32.1536 37.3915 35.2416 38.6373 37.7761L38.727 37.732ZM36.871 28.516H36.971C36.971 22.9406 38.2692 18.7448 40.8489 15.9113L40.775 15.844L40.7011 15.7767C38.0755 18.6605 36.771 22.9127 36.771 28.516H36.871ZM40.775 15.844L40.8489 15.9114C43.4716 13.0349 47.1118 11.592 51.783 11.592V11.492V11.392C47.0675 11.392 43.3691 12.8505 40.7011 15.7766L40.775 15.844ZM51.783 11.492V11.592C55.2246 11.592 57.9969 12.3568 60.1086 13.8772L60.167 13.796L60.2254 13.7148C58.0704 12.1632 55.2534 11.392 51.783 11.392V11.492ZM60.167 13.796L60.1086 13.8772C62.2231 15.3996 63.7475 17.5361 64.6803 20.2921L64.775 20.26L64.8697 20.2279C63.9252 17.4372 62.3776 15.2644 60.2254 13.7148L60.167 13.796ZM64.775 20.26L64.6809 20.2938C65.6573 23.0107 66.1256 26.1984 66.083 29.8588L66.183 29.86L66.283 29.8612C66.3258 26.1829 65.8554 22.9706 64.8691 20.2262L64.775 20.26ZM66.183 29.86V29.76H40.903V29.86V29.96H66.183V29.86ZM40.903 29.86L41.0029 29.8562L40.8109 24.8642L40.711 24.868L40.6111 24.8718L40.8031 29.8638L40.903 29.86ZM40.711 24.868V24.968H61.063V24.868V24.768H40.711V24.868ZM61.063 24.868L60.9923 24.7973L59.3923 26.3973L59.463 26.468L59.5337 26.5387L61.1337 24.9387L61.063 24.868ZM59.463 26.468L59.5629 26.4641C59.4346 23.1706 58.7502 20.7547 57.492 19.2362L57.415 19.3L57.338 19.3638C58.5545 20.832 59.2354 23.1947 59.3631 26.4719L59.463 26.468ZM57.415 19.3L57.4929 19.2373C56.2306 17.6703 54.2556 16.896 51.591 16.896V16.996V17.096C54.2171 17.096 56.1248 17.8577 57.3371 19.3627L57.415 19.3ZM51.591 16.996V16.896C49.8701 16.896 48.4005 17.2618 47.1871 17.9985L47.239 18.084L47.2909 18.1695C48.4668 17.4555 49.8986 17.096 51.591 17.096V16.996ZM47.239 18.084L47.1894 17.9972C45.9687 18.6947 45.0389 19.9115 44.3934 21.6329L44.487 21.668L44.5806 21.7031C45.2151 20.0111 46.12 18.8386 47.2886 18.1708L47.239 18.084ZM44.487 21.668L44.3929 21.6342C43.7899 23.3139 43.491 25.6311 43.491 28.58H43.591H43.691C43.691 25.6409 43.9894 23.3501 44.5811 21.7018L44.487 21.668ZM43.591 28.58H43.491C43.491 32.1781 44.3262 34.9362 46.0122 36.8383L46.087 36.772L46.1618 36.7057C44.5198 34.8531 43.691 32.1499 43.691 28.58H43.591ZM46.087 36.772L46.0129 36.8392C47.7013 38.7007 50.1853 39.624 53.447 39.624V39.524V39.424C50.2233 39.424 47.8007 38.5126 46.1611 36.7048L46.087 36.772ZM53.447 39.524V39.624C54.9035 39.624 56.2544 39.4955 57.4993 39.2379L57.479 39.14L57.4587 39.0421C56.229 39.2965 54.8918 39.424 53.447 39.424V39.524ZM57.479 39.14L57.4986 39.2381C58.7827 38.9812 59.9609 38.66 61.0329 38.2741L60.999 38.18L60.9651 38.0859C59.9037 38.468 58.7353 38.7868 57.4594 39.0419L57.479 39.14ZM60.999 38.18L61.0361 38.2729C62.1046 37.8455 63.0246 37.439 63.7957 37.0534L63.751 36.964L63.7063 36.8746C62.9414 37.257 62.0268 37.6612 60.9619 38.0872L60.999 38.18ZM63.751 36.964H63.651V43.172H63.751H63.851V36.964H63.751ZM63.751 43.172L63.7116 43.0801C62.2255 43.717 60.5468 44.2272 58.675 44.61L58.695 44.708L58.715 44.806C60.5979 44.4208 62.2898 43.907 63.7904 43.2639L63.751 43.172ZM58.695 44.708L58.6728 44.6105C56.8042 45.0352 54.6998 45.248 52.359 45.248V45.348V45.448C54.7116 45.448 56.8312 45.2341 58.7172 44.8055L58.695 44.708ZM75.446 44.388V44.488H75.546V44.388H75.446ZM68.79 44.388H68.69V44.488H68.79V44.388ZM68.79 0.0999985V0H68.69V0.0999985H68.79ZM75.446 0.0999985H75.546V0H75.446V0.0999985ZM75.446 44.388V44.288H68.79V44.388V44.488H75.446V44.388ZM68.79 44.388H68.89V0.0999985H68.79H68.69V44.388H68.79ZM68.79 0.0999985V0.199997H75.446V0.0999985V0H68.79V0.0999985ZM75.446 0.0999985H75.346V44.388H75.446H75.546V0.0999985H75.446ZM84.339 42.916L84.2712 42.9895L84.2721 42.9903L84.339 42.916ZM81.843 17.828H81.943V17.728H81.843V17.828ZM76.659 17.828H76.559V17.928H76.659V17.828ZM76.659 12.26V12.16H76.559V12.26H76.659ZM81.843 12.26V12.36H81.943V12.26H81.843ZM81.843 3.3V3.2H81.743V3.3H81.843ZM88.755 3.3H88.855V3.2H88.755V3.3ZM88.755 12.26H88.655V12.36H88.755V12.26ZM96.563 12.26H96.663V12.16H96.563V12.26ZM96.563 17.828V17.928H96.663V17.828H96.563ZM88.755 17.828V17.728H88.655V17.828H88.755ZM89.523 38.18L89.4396 38.2356L89.4436 38.2407L89.523 38.18ZM94.707 39.012L94.7299 39.1095L94.7352 39.1079L94.707 39.012ZM96.563 38.244H96.663V38.0699L96.5126 38.1576L96.563 38.244ZM96.563 44.196L96.6036 44.2874L96.663 44.261V44.196H96.563ZM93.939 44.964L93.9219 44.8655L93.9211 44.8656L93.939 44.964ZM91.251 45.22V45.12C88.3676 45.12 86.0897 44.3571 84.4059 42.8417L84.339 42.916L84.2721 42.9903C86.0016 44.5469 88.3317 45.32 91.251 45.32V45.22ZM84.339 42.916L84.4068 42.8425C82.7693 41.331 81.943 39.1001 81.943 36.132H81.843H81.743C81.743 39.1372 82.5807 41.429 84.2712 42.9895L84.339 42.916ZM81.843 36.132H81.943V17.828H81.843H81.743V36.132H81.843ZM81.843 17.828V17.728H76.659V17.828V17.928H81.843V17.828ZM76.659 17.828H76.759V12.26H76.659H76.559V17.828H76.659ZM76.659 12.26V12.36H81.843V12.26V12.16H76.659V12.26ZM81.843 12.26H81.943V3.3H81.843H81.743V12.26H81.843ZM81.843 3.3V3.4H88.755V3.3V3.2H81.843V3.3ZM88.755 3.3H88.655V12.26H88.755H88.855V3.3H88.755ZM88.755 12.26V12.36H96.563V12.26V12.16H88.755V12.26ZM96.563 12.26H96.463V17.828H96.563H96.663V12.26H96.563ZM96.563 17.828V17.728H88.755V17.828V17.928H96.563V17.828ZM88.755 17.828H88.655V34.788H88.755H88.855V17.828H88.755ZM88.755 34.788H88.655C88.655 36.29 88.912 37.4438 89.4398 38.2355L89.523 38.18L89.6062 38.1245C89.11 37.3802 88.855 36.2727 88.855 34.788H88.755ZM89.523 38.18L89.4436 38.2407C90.0261 39.0025 91.0677 39.368 92.531 39.368V39.268V39.168C91.093 39.168 90.1292 38.8081 89.6024 38.1193L89.523 38.18ZM92.531 39.268V39.368C93.2643 39.368 93.9973 39.2817 94.7299 39.1093L94.707 39.012L94.6841 38.9147C93.9661 39.0836 93.2484 39.168 92.531 39.168V39.268ZM94.707 39.012L94.7352 39.1079C95.4663 38.8929 96.0928 38.6341 96.6134 38.3304L96.563 38.244L96.5126 38.1576C96.0092 38.4513 95.3984 38.7044 94.6788 38.9161L94.707 39.012ZM96.563 38.244H96.463V44.196H96.563H96.663V38.244H96.563ZM96.563 44.196L96.5224 44.1046C95.7631 44.4421 94.8966 44.696 93.9219 44.8655L93.939 44.964L93.9561 45.0625C94.9441 44.8907 95.8269 44.6326 96.6036 44.2874L96.563 44.196ZM93.939 44.964L93.9211 44.8656C92.9877 45.0353 92.0977 45.12 91.251 45.12V45.22V45.32C92.111 45.32 93.013 45.234 93.9569 45.0624L93.939 44.964ZM106.086 44.836L106.107 44.7383L106.105 44.7378L106.086 44.836ZM101.862 43.236L101.809 43.321L101.81 43.3218L101.862 43.236ZM98.8535 40.1L98.7651 40.1469L98.767 40.1502L98.8535 40.1ZM99.1735 29.156L99.2588 29.2081V29.2081L99.1735 29.156ZM103.206 25.7L103.165 25.6084V25.6084L103.206 25.7ZM113.83 24.932L113.81 25.0301L113.811 25.0302L113.83 24.932ZM117.35 26.02L117.308 26.111L117.312 26.1128L117.35 26.02ZM120.038 27.492L120.136 27.4763L120.13 27.4368L120.098 27.4126L120.038 27.492ZM120.742 31.908L120.685 31.9906L120.877 32.1213L120.84 31.8923L120.742 31.908ZM116.966 30.308L116.937 30.4039L116.939 30.4045L116.966 30.308ZM106.278 30.884L106.222 30.8008L106.221 30.8017L106.278 30.884ZM105.51 37.86L105.435 37.9267L105.437 37.9287L105.51 37.86ZM108.198 39.588L108.164 39.6822L108.168 39.6836L108.198 39.588ZM116.966 18.852L116.904 18.9308L116.906 18.932L116.966 18.852ZM105.574 18.148L105.601 18.2441L105.603 18.2435L105.574 18.148ZM100.838 20.516H100.738V20.7286L100.901 20.593L100.838 20.516ZM100.838 14.244L100.781 14.1613L100.738 14.191V14.244H100.838ZM106.022 12.324L106.042 12.4219L106.043 12.4216L106.022 12.324ZM116.71 11.94L116.689 12.0379L116.693 12.0385L116.71 11.94ZM120.166 13.028L120.122 13.1182L120.125 13.1195L120.166 13.028ZM122.982 15.012L122.909 15.081L122.913 15.0845L122.982 15.012ZM124.966 18.02L124.872 18.0566V18.0566L124.966 18.02ZM123.686 42.468L123.751 42.5436L123.751 42.5434L123.686 42.468ZM118.438 44.708L118.42 44.6094L118.419 44.6098L118.438 44.708ZM110.886 45.348V45.248C109.228 45.248 107.636 45.078 106.107 44.7384L106.086 44.836L106.064 44.9336C107.607 45.2766 109.215 45.448 110.886 45.448V45.348ZM106.086 44.836L106.105 44.7378C104.579 44.4413 103.182 43.912 101.913 43.1502L101.862 43.236L101.81 43.3218C103.101 44.096 104.52 44.6334 106.066 44.9342L106.086 44.836ZM101.862 43.236L101.914 43.151C100.692 42.3921 99.7002 41.359 98.94 40.0498L98.8535 40.1L98.767 40.1502C99.5428 41.4863 100.557 42.5439 101.809 43.321L101.862 43.236ZM98.8535 40.1L98.9418 40.0531C98.2261 38.7059 97.8655 37.0377 97.8655 35.044H97.7655H97.6655C97.6655 37.061 98.0302 38.7635 98.7652 40.1469L98.8535 40.1ZM97.7655 35.044H97.8655C97.8655 32.6672 98.3324 30.7241 99.2588 29.2081L99.1735 29.156L99.0882 29.1039C98.1373 30.6599 97.6655 32.6421 97.6655 35.044H97.7655ZM99.1735 29.156L99.2588 29.2081C100.186 27.6907 101.514 26.5519 103.246 25.7916L103.206 25.7L103.165 25.6084C101.398 26.3841 100.038 27.5493 99.0882 29.1039L99.1735 29.156ZM103.206 25.7L103.246 25.7916C104.979 25.0304 107.056 24.648 109.478 24.648V24.548V24.448C107.035 24.448 104.93 24.8336 103.165 25.6084L103.206 25.7ZM109.478 24.548V24.648C111.094 24.648 112.538 24.7756 113.81 25.0301L113.83 24.932L113.849 24.8339C112.561 24.5764 111.104 24.448 109.478 24.448V24.548ZM113.83 24.932L113.811 25.0302C115.127 25.285 116.292 25.6455 117.308 26.1109L117.35 26.02L117.391 25.9291C116.359 25.4559 115.178 25.091 113.849 24.8338L113.83 24.932ZM117.35 26.02L117.312 26.1128C118.373 26.537 119.26 27.0235 119.977 27.5714L120.038 27.492L120.098 27.4126C119.364 26.8512 118.46 26.3564 117.387 25.9272L117.35 26.02ZM120.038 27.492L119.939 27.5077L120.643 31.9237L120.742 31.908L120.84 31.8923L120.136 27.4763L120.038 27.492ZM120.742 31.908L120.798 31.8254C119.847 31.177 118.577 30.6399 116.992 30.2115L116.966 30.308L116.939 30.4045C118.512 30.8295 119.759 31.359 120.685 31.9906L120.742 31.908ZM116.966 30.308L116.994 30.2121C115.405 29.7398 113.689 29.504 111.846 29.504V29.604V29.704C113.672 29.704 115.369 29.9376 116.937 30.4039L116.966 30.308ZM111.846 29.604V29.504C109.404 29.504 107.525 29.9318 106.222 30.8008L106.278 30.884L106.333 30.9672C107.59 30.1295 109.423 29.704 111.846 29.704V29.604ZM106.278 30.884L106.221 30.8017C104.952 31.6764 104.322 32.9896 104.322 34.724H104.422H104.522C104.522 33.045 105.128 31.7982 106.334 30.9663L106.278 30.884ZM104.422 34.724H104.322C104.322 36.024 104.69 37.0945 105.435 37.9267L105.51 37.86L105.584 37.7933C104.878 37.0042 104.522 35.984 104.522 34.724H104.422ZM105.51 37.86L105.437 37.9287C106.174 38.7089 107.083 39.2932 108.164 39.6821L108.198 39.588L108.231 39.4939C107.178 39.1148 106.296 38.5471 105.582 37.7913L105.51 37.86ZM108.198 39.588L108.168 39.6836C109.287 40.0279 110.449 40.2 111.654 40.2V40.1V40C110.469 40 109.326 39.8307 108.227 39.4924L108.198 39.588ZM111.654 40.1V40.2C114.173 40.2 116.04 40.0295 117.249 39.6842L117.222 39.588L117.194 39.4918C116.013 39.8292 114.169 40 111.654 40V40.1ZM117.222 39.588L117.249 39.6842C117.862 39.5091 118.33 39.2163 118.645 38.8003C118.96 38.3844 119.114 37.8549 119.114 37.22H119.014H118.914C118.914 37.8224 118.768 38.3063 118.486 38.6797C118.203 39.053 117.776 39.3256 117.194 39.4918L117.222 39.588ZM119.014 37.22H119.114V23.78H119.014H118.914V37.22H119.014ZM119.014 23.78H119.114C119.114 21.4983 118.424 19.8207 117.026 18.772L116.966 18.852L116.906 18.932C118.238 19.9313 118.914 21.539 118.914 23.78H119.014ZM116.966 18.852L117.027 18.7732C115.638 17.6878 113.671 17.152 111.142 17.152V17.252V17.352C113.646 17.352 115.563 17.8829 116.904 18.9308L116.966 18.852ZM111.142 17.252V17.152C109.338 17.152 107.472 17.4525 105.544 18.0525L105.574 18.148L105.603 18.2435C107.515 17.6488 109.361 17.352 111.142 17.352V17.252ZM105.574 18.148L105.546 18.0519C103.616 18.6095 102.024 19.4044 100.774 20.439L100.838 20.516L100.901 20.593C102.126 19.5796 103.691 18.7958 105.601 18.2441L105.574 18.148ZM100.838 20.516H100.938V14.244H100.838H100.738V20.516H100.838ZM100.838 14.244L100.894 14.3267C102.073 13.5265 103.787 12.89 106.042 12.4219L106.022 12.324L106.001 12.2261C103.734 12.6967 101.991 13.3401 100.781 14.1613L100.838 14.244ZM106.022 12.324L106.043 12.4216C108.34 11.9112 110.701 11.656 113.126 11.656V11.556V11.456C110.686 11.456 108.311 11.7127 106 12.2264L106.022 12.324ZM113.126 11.556V11.656C114.313 11.656 115.501 11.7832 116.689 12.0378L116.71 11.94L116.73 11.8422C115.529 11.5848 114.327 11.456 113.126 11.456V11.556ZM116.71 11.94L116.693 12.0385C117.921 12.2504 119.064 12.6104 120.122 13.1182L120.166 13.028L120.209 12.9378C119.133 12.4216 117.972 12.0563 116.726 11.8415L116.71 11.94ZM120.166 13.028L120.125 13.1195C121.18 13.5835 122.107 14.2371 122.909 15.0809L122.982 15.012L123.054 14.9431C122.234 14.0803 121.285 13.4112 120.206 12.9365L120.166 13.028ZM122.982 15.012L122.913 15.0845C123.754 15.8842 124.408 16.8743 124.872 18.0566L124.966 18.02L125.059 17.9834C124.584 16.7764 123.915 15.7611 123.05 14.9395L122.982 15.012ZM124.966 18.02L124.872 18.0566C125.336 19.237 125.57 20.632 125.57 22.244H125.67H125.77C125.77 20.6133 125.534 19.1924 125.059 17.9834L124.966 18.02ZM125.67 22.244H125.57V37.604H125.67H125.77V22.244H125.67ZM125.67 37.604H125.57C125.57 39.6718 124.916 41.2632 123.62 42.3926L123.686 42.468L123.751 42.5434C125.1 41.3688 125.77 39.7175 125.77 37.604H125.67ZM123.686 42.468L123.62 42.3924C122.358 43.4865 120.627 44.2276 118.42 44.6095L118.438 44.708L118.455 44.8065C120.685 44.4204 122.453 43.6681 123.751 42.5436L123.686 42.468ZM118.438 44.708L118.419 44.6098C116.207 45.035 113.697 45.248 110.886 45.248V45.348V45.448C113.706 45.448 116.23 45.2343 118.456 44.8062L118.438 44.708ZM150.804 44.708L150.82 44.6092L150.817 44.6089L150.804 44.708ZM146.388 43.62L146.352 43.7133V43.7133L146.388 43.62ZM142.292 41.764H142.192V41.825L142.246 41.8529L142.292 41.764ZM142.292 34.724L142.354 34.6457L142.192 34.5168V34.724H142.292ZM148.308 37.988L148.274 38.082L148.274 38.0822L148.308 37.988ZM161.876 37.668L161.94 37.7448L161.94 37.7446L161.876 37.668ZM162.388 29.54L162.317 29.6108L162.321 29.6138L162.388 29.54ZM158.612 27.172L158.65 27.0793V27.0793L158.612 27.172ZM153.556 25.252L153.521 25.3456L153.522 25.3462L153.556 25.252ZM149.524 23.652L149.483 23.7432L149.485 23.7442L149.524 23.652ZM145.94 21.476L145.876 21.5526L145.878 21.5541L145.94 21.476ZM143.252 8.74L143.159 8.70428V8.70428L143.252 8.74ZM145.748 4.836L145.676 4.76659L145.676 4.76664L145.748 4.836ZM150.228 2.02L150.263 2.11373L150.264 2.11328L150.228 2.02ZM161.364 1.252L161.347 1.35055L161.348 1.35064L161.364 1.252ZM164.948 2.276L164.909 2.36819L164.913 2.36977L164.948 2.276ZM168.66 3.876H168.76V3.81329L168.704 3.78598L168.66 3.876ZM168.66 10.788L168.606 10.8722L168.76 10.9707V10.788H168.66ZM165.396 8.868L165.347 8.95526L165.349 8.95605L165.396 8.868ZM157.588 6.756L157.591 6.65604L157.59 6.65603L157.588 6.756ZM153.172 7.396L153.21 7.48861V7.48861L153.172 7.396ZM150.548 9.38L150.466 9.32265V9.32265L150.548 9.38ZM150.74 15.908L150.662 15.971L150.666 15.9749L150.74 15.908ZM153.94 18.084L153.9 18.1756L153.902 18.1766L153.94 18.084ZM158.676 19.748L158.707 19.6529L158.706 19.6525L158.676 19.748ZM163.284 21.476L163.245 21.5679V21.5679L163.284 21.476ZM167.252 23.844L167.189 23.9215L167.191 23.9229L167.252 23.844ZM170.004 27.236L169.915 27.2807L169.916 27.2829L170.004 27.236ZM169.556 38.564L169.467 38.5177L169.467 38.5185L169.556 38.564ZM164.82 43.3L164.869 43.3873L164.869 43.3869L164.82 43.3ZM156.436 45.092V44.992C154.306 44.992 152.435 44.8642 150.82 44.6092L150.804 44.708L150.788 44.8068C152.416 45.0638 154.299 45.192 156.436 45.192V45.092ZM150.804 44.708L150.817 44.6089C149.202 44.3964 147.738 44.0355 146.424 43.5267L146.388 43.62L146.352 43.7133C147.683 44.2285 149.163 44.5929 150.791 44.8071L150.804 44.708ZM146.388 43.62L146.424 43.5267C145.105 43.0162 143.743 42.399 142.338 41.6751L142.292 41.764L142.246 41.8529C143.657 42.5797 145.026 43.1998 146.352 43.7133L146.388 43.62ZM142.292 41.764H142.392V34.724H142.292H142.192V41.764H142.292ZM142.292 34.724L142.23 34.8023C143.904 36.1327 145.919 37.2256 148.274 38.082L148.308 37.988L148.342 37.894C146.004 37.0437 144.008 35.9606 142.354 34.6457L142.292 34.724ZM148.308 37.988L148.274 38.0822C150.675 38.9396 153.247 39.368 155.988 39.368V39.268V39.168C153.268 39.168 150.719 38.743 148.342 37.8938L148.308 37.988ZM155.988 39.268V39.368C158.644 39.368 160.634 38.8331 161.94 37.7448L161.876 37.668L161.812 37.5912C160.558 38.6363 158.623 39.168 155.988 39.168V39.268ZM161.876 37.668L161.94 37.7446C163.288 36.614 163.96 35.0698 163.96 33.124H163.86H163.76C163.76 35.0182 163.109 36.5033 161.812 37.5914L161.876 37.668ZM163.86 33.124H163.96C163.96 31.6064 163.46 30.3835 162.455 29.4662L162.388 29.54L162.321 29.6138C163.278 30.4884 163.76 31.6549 163.76 33.124H163.86ZM162.388 29.54L162.459 29.4693C161.508 28.5189 160.237 27.723 158.65 27.0793L158.612 27.172L158.574 27.2647C160.144 27.901 161.39 28.6838 162.317 29.6107L162.388 29.54ZM158.612 27.172L158.65 27.0793C157.069 26.4387 155.383 25.7982 153.59 25.1578L153.556 25.252L153.522 25.3462C155.313 25.9858 156.997 26.6253 158.574 27.2647L158.612 27.172ZM153.556 25.252L153.591 25.1584C152.227 24.6468 150.884 24.1139 149.563 23.5598L149.524 23.652L149.485 23.7442C150.809 24.2994 152.154 24.8332 153.521 25.3456L153.556 25.252ZM149.524 23.652L149.565 23.5609C148.25 22.9668 147.062 22.2457 146.002 21.3979L145.94 21.476L145.878 21.5541C146.951 22.413 148.153 23.1426 149.483 23.7431L149.524 23.652ZM145.94 21.476L146.004 21.3994C144.95 20.5135 144.105 19.3948 143.471 18.0416L143.38 18.084L143.289 18.1264C143.935 19.5038 144.797 20.6465 145.876 21.5526L145.94 21.476ZM143.38 18.084L143.471 18.0416C142.838 16.6931 142.52 15.0233 142.52 13.028H142.42H142.32C142.32 15.0434 142.642 16.7442 143.289 18.1264L143.38 18.084ZM142.42 13.028H142.52C142.52 11.6334 142.795 10.2162 143.345 8.77571L143.252 8.74L143.159 8.70428C142.6 10.1652 142.32 11.6066 142.32 13.028H142.42ZM143.252 8.74L143.345 8.77571C143.895 7.33796 144.72 6.04799 145.82 4.90536L145.748 4.836L145.676 4.76664C144.558 5.92801 143.718 7.2407 143.159 8.70428L143.252 8.74ZM145.748 4.836L145.82 4.90541C146.96 3.72329 148.44 2.7921 150.263 2.11372L150.228 2.02L150.193 1.92627C148.347 2.61324 146.84 3.55937 145.676 4.76659L145.748 4.836ZM150.228 2.02L150.264 2.11328C152.127 1.39348 154.354 1.032 156.948 1.032V0.931999V0.832001C154.336 0.832001 152.084 1.19585 150.192 1.92672L150.228 2.02ZM156.948 0.931999V1.032C158.651 1.032 160.117 1.13845 161.347 1.35054L161.364 1.252L161.381 1.15345C160.136 0.938877 158.658 0.832001 156.948 0.832001V0.931999ZM161.364 1.252L161.348 1.35064C162.62 1.56278 163.807 1.90204 164.909 2.3681L164.948 2.276L164.987 2.1839C163.87 1.71128 162.668 1.36788 161.38 1.15336L161.364 1.252ZM164.948 2.276L164.913 2.36977C166.062 2.79514 167.296 3.32715 168.616 3.96601L168.66 3.876L168.704 3.78598C167.379 3.14485 166.138 2.61019 164.983 2.18222L164.948 2.276ZM168.66 3.876H168.56V10.788H168.66H168.76V3.876H168.66ZM168.66 10.788L168.714 10.7038C167.645 10.0198 166.555 9.37848 165.443 8.77995L165.396 8.868L165.349 8.95605C166.456 9.55218 167.542 10.1909 168.606 10.8722L168.66 10.788ZM165.396 8.868L165.445 8.78075C164.371 8.17953 163.191 7.68612 161.905 7.30022L161.876 7.396L161.847 7.49178C163.121 7.87387 164.287 8.3618 165.347 8.95525L165.396 8.868ZM161.876 7.396L161.905 7.30022C160.615 6.91327 159.177 6.6989 157.591 6.65604L157.588 6.756L157.585 6.85596C159.157 6.89843 160.577 7.11073 161.847 7.49178L161.876 7.396ZM157.588 6.756L157.59 6.65603C155.79 6.61317 154.303 6.82711 153.134 7.30339L153.172 7.396L153.21 7.48861C154.345 7.02621 155.802 6.8135 157.586 6.85597L157.588 6.756ZM153.172 7.396L153.134 7.30339C151.968 7.77855 151.076 8.45072 150.466 9.32265L150.548 9.38L150.63 9.43734C151.214 8.60261 152.072 7.95211 153.21 7.48861L153.172 7.396ZM150.548 9.38L150.466 9.32265C149.856 10.1939 149.552 11.1956 149.552 12.324H149.652H149.752C149.752 11.2338 150.045 10.2728 150.63 9.43734L150.548 9.38ZM149.652 12.324H149.552C149.552 13.8334 149.919 15.0524 150.662 15.9709L150.74 15.908L150.818 15.8451C150.111 14.9716 149.752 13.8013 149.752 12.324H149.652ZM150.74 15.908L150.666 15.9749C151.446 16.8415 152.525 17.5742 153.9 18.1756L153.94 18.084L153.98 17.9924C152.624 17.3991 151.57 16.6812 150.814 15.8411L150.74 15.908ZM153.94 18.084L153.902 18.1766C155.271 18.7326 156.852 19.2882 158.646 19.8435L158.676 19.748L158.706 19.6525C156.916 19.0984 155.34 18.5447 153.978 17.9914L153.94 18.084ZM158.676 19.748L158.645 19.8431C160.221 20.3542 161.754 20.9291 163.245 21.5679L163.284 21.476L163.323 21.3841C161.827 20.7429 160.288 20.1658 158.707 19.6529L158.676 19.748ZM163.284 21.476L163.245 21.5679C164.73 22.2046 166.045 22.9893 167.189 23.9215L167.252 23.844L167.315 23.7665C166.155 22.8214 164.824 22.0274 163.323 21.3841L163.284 21.476ZM167.252 23.844L167.191 23.9229C168.33 24.8093 169.238 25.9281 169.915 27.2807L170.004 27.236L170.093 27.1913C169.404 25.8132 168.478 24.6707 167.313 23.7651L167.252 23.844ZM170.004 27.236L169.916 27.2829C170.631 28.6301 170.992 30.2983 170.992 32.292H171.092H171.192C171.192 30.275 170.827 28.5725 170.092 27.1891L170.004 27.236ZM171.092 32.292H170.992C170.992 34.4946 170.484 36.5694 169.467 38.5177L169.556 38.564L169.645 38.6103C170.676 36.6333 171.192 34.5267 171.192 32.292H171.092ZM169.556 38.564L169.467 38.5185C168.496 40.4185 166.932 41.9838 164.771 43.2131L164.82 43.3L164.869 43.3869C167.06 42.1415 168.653 40.5495 169.645 38.6095L169.556 38.564ZM164.82 43.3L164.771 43.2127C162.658 44.3963 159.882 44.992 156.436 44.992V45.092V45.192C159.902 45.192 162.716 44.593 164.869 43.3873L164.82 43.3ZM174.257 44.388H174.157V44.488H174.257V44.388ZM174.257 12.452V12.352H174.157V12.452H174.257ZM180.977 12.452L181.077 12.4518L181.077 12.352H180.977V12.452ZM181.041 44.388V44.488H181.141L181.141 44.3878L181.041 44.388ZM174.065 7.14H173.965V7.24H174.065V7.14ZM174.065 1.06V0.959999H173.965V1.06H174.065ZM181.233 1.06H181.333V0.959999H181.233V1.06ZM181.233 7.14V7.24H181.333V7.14H181.233ZM174.257 44.388H174.357V12.452H174.257H174.157V44.388H174.257ZM174.257 12.452V12.552H180.977V12.452V12.352H174.257V12.452ZM180.977 12.452L180.877 12.4522L180.941 44.3882L181.041 44.388L181.141 44.3878L181.077 12.4518L180.977 12.452ZM181.041 44.388V44.288H174.257V44.388V44.488H181.041V44.388ZM174.065 7.14H174.165V1.06H174.065H173.965V7.14H174.065ZM174.065 1.06V1.16H181.233V1.06V0.959999H174.065V1.06ZM181.233 1.06H181.133V7.14H181.233H181.333V1.06H181.233ZM181.233 7.14V7.04H174.065V7.14V7.24H181.233V7.14ZM190.114 42.916L190.046 42.9895L190.047 42.9903L190.114 42.916ZM187.618 17.828H187.718V17.728H187.618V17.828ZM182.434 17.828H182.334V17.928H182.434V17.828ZM182.434 12.26V12.16H182.334V12.26H182.434ZM187.618 12.26V12.36H187.718V12.26H187.618ZM187.618 3.3V3.2H187.518V3.3H187.618ZM194.53 3.3H194.63V3.2H194.53V3.3ZM194.53 12.26H194.43V12.36H194.53V12.26ZM202.338 12.26H202.438V12.16H202.338V12.26ZM202.338 17.828V17.928H202.438V17.828H202.338ZM194.53 17.828V17.728H194.43V17.828H194.53ZM195.298 38.18L195.215 38.2356L195.219 38.2407L195.298 38.18ZM200.482 39.012L200.505 39.1095L200.51 39.1079L200.482 39.012ZM202.338 38.244H202.438V38.0699L202.288 38.1576L202.338 38.244ZM202.338 44.196L202.379 44.2874L202.438 44.261V44.196H202.338ZM199.714 44.964L199.697 44.8655L199.696 44.8656L199.714 44.964ZM197.026 45.22V45.12C194.143 45.12 191.865 44.3571 190.181 42.8417L190.114 42.916L190.047 42.9903C191.777 44.5469 194.107 45.32 197.026 45.32V45.22ZM190.114 42.916L190.182 42.8425C188.544 41.331 187.718 39.1001 187.718 36.132H187.618H187.518C187.518 39.1372 188.356 41.429 190.046 42.9895L190.114 42.916ZM187.618 36.132H187.718V17.828H187.618H187.518V36.132H187.618ZM187.618 17.828V17.728H182.434V17.828V17.928H187.618V17.828ZM182.434 17.828H182.534V12.26H182.434H182.334V17.828H182.434ZM182.434 12.26V12.36H187.618V12.26V12.16H182.434V12.26ZM187.618 12.26H187.718V3.3H187.618H187.518V12.26H187.618ZM187.618 3.3V3.4H194.53V3.3V3.2H187.618V3.3ZM194.53 3.3H194.43V12.26H194.53H194.63V3.3H194.53ZM194.53 12.26V12.36H202.338V12.26V12.16H194.53V12.26ZM202.338 12.26H202.238V17.828H202.338H202.438V12.26H202.338ZM202.338 17.828V17.728H194.53V17.828V17.928H202.338V17.828ZM194.53 17.828H194.43V34.788H194.53H194.63V17.828H194.53ZM194.53 34.788H194.43C194.43 36.29 194.687 37.4438 195.215 38.2355L195.298 38.18L195.381 38.1245C194.885 37.3802 194.63 36.2727 194.63 34.788H194.53ZM195.298 38.18L195.219 38.2407C195.801 39.0025 196.843 39.368 198.306 39.368V39.268V39.168C196.868 39.168 195.904 38.8081 195.377 38.1193L195.298 38.18ZM198.306 39.268V39.368C199.039 39.368 199.772 39.2817 200.505 39.1093L200.482 39.012L200.459 38.9147C199.741 39.0836 199.023 39.168 198.306 39.168V39.268ZM200.482 39.012L200.51 39.1079C201.241 38.8929 201.868 38.6341 202.388 38.3304L202.338 38.244L202.288 38.1576C201.784 38.4513 201.173 38.7044 200.454 38.9161L200.482 39.012ZM202.338 38.244H202.238V44.196H202.338H202.438V38.244H202.338ZM202.338 44.196L202.297 44.1046C201.538 44.4421 200.672 44.696 199.697 44.8655L199.714 44.964L199.731 45.0625C200.719 44.8907 201.602 44.6326 202.379 44.2874L202.338 44.196ZM199.714 44.964L199.696 44.8656C198.763 45.0353 197.873 45.12 197.026 45.12V45.22V45.32C197.886 45.32 198.788 45.234 199.732 45.0624L199.714 44.964ZM210.58 43.428L210.532 43.5154L210.533 43.5158L210.58 43.428ZM205.204 37.732L205.115 37.7761L205.115 37.7773L205.204 37.732ZM207.252 15.844L207.179 15.7766L207.179 15.7767L207.252 15.844ZM226.644 13.796L226.703 13.7148V13.7148L226.644 13.796ZM231.252 20.26L231.158 20.2921L231.158 20.2938L231.252 20.26ZM232.66 29.86V29.96H232.759L232.76 29.8612L232.66 29.86ZM207.381 29.86L207.281 29.8638L207.284 29.96H207.381V29.86ZM207.188 24.868V24.768H207.085L207.089 24.8718L207.188 24.868ZM227.541 24.868L227.611 24.9387L227.782 24.768H227.541V24.868ZM225.94 26.468L225.841 26.4719L225.849 26.7004L226.011 26.5387L225.94 26.468ZM223.892 19.3L223.815 19.3627L223.815 19.3638L223.892 19.3ZM213.716 18.084L213.766 18.1709L213.768 18.1695L213.716 18.084ZM210.965 21.668L210.871 21.6329L210.87 21.6342L210.965 21.668ZM212.564 36.772L212.49 36.8383L212.49 36.8392L212.564 36.772ZM223.957 39.14L223.937 39.0419L223.936 39.0421L223.957 39.14ZM227.476 38.18L227.51 38.2741L227.514 38.2729L227.476 38.18ZM230.228 36.964H230.328V36.8022L230.184 36.8746L230.228 36.964ZM230.228 43.172L230.268 43.2639L230.328 43.2379V43.172H230.228ZM225.172 44.708L225.152 44.61L225.15 44.6105L225.172 44.708ZM218.836 45.348V45.248C215.693 45.248 212.958 44.6109 210.628 43.3402L210.58 43.428L210.533 43.5158C212.896 44.8051 215.665 45.448 218.836 45.448V45.348ZM210.58 43.428L210.629 43.3406C208.344 42.071 206.565 40.1876 205.294 37.6867L205.204 37.732L205.115 37.7773C206.404 40.3111 208.209 42.225 210.532 43.5154L210.58 43.428ZM205.204 37.732L205.294 37.6879C204.065 35.1877 203.448 32.1317 203.448 28.516H203.349H203.248C203.248 32.1536 203.869 35.2416 205.115 37.7761L205.204 37.732ZM203.349 28.516H203.448C203.448 22.9406 204.747 18.7448 207.326 15.9113L207.252 15.844L207.179 15.7767C204.553 18.6605 203.248 22.9127 203.248 28.516H203.349ZM207.252 15.844L207.326 15.9114C209.949 13.0349 213.589 11.592 218.26 11.592V11.492V11.392C213.545 11.392 209.847 12.8505 207.179 15.7766L207.252 15.844ZM218.26 11.492V11.592C221.702 11.592 224.474 12.3568 226.586 13.8772L226.644 13.796L226.703 13.7148C224.548 12.1632 221.731 11.392 218.26 11.392V11.492ZM226.644 13.796L226.586 13.8772C228.701 15.3996 230.225 17.5361 231.158 20.2921L231.252 20.26L231.347 20.2279C230.403 17.4372 228.855 15.2644 226.703 13.7148L226.644 13.796ZM231.252 20.26L231.158 20.2938C232.135 23.0107 232.603 26.1984 232.561 29.8588L232.66 29.86L232.76 29.8612C232.803 26.1829 232.333 22.9706 231.347 20.2262L231.252 20.26ZM232.66 29.86V29.76H207.381V29.86V29.96H232.66V29.86ZM207.381 29.86L207.48 29.8562L207.288 24.8642L207.188 24.868L207.089 24.8718L207.281 29.8638L207.381 29.86ZM207.188 24.868V24.968H227.541V24.868V24.768H207.188V24.868ZM227.541 24.868L227.47 24.7973L225.87 26.3973L225.94 26.468L226.011 26.5387L227.611 24.9387L227.541 24.868ZM225.94 26.468L226.04 26.4641C225.912 23.1706 225.228 20.7547 223.97 19.2362L223.892 19.3L223.815 19.3638C225.032 20.832 225.713 23.1947 225.841 26.4719L225.94 26.468ZM223.892 19.3L223.97 19.2373C222.708 17.6703 220.733 16.896 218.069 16.896V16.996V17.096C220.695 17.096 222.602 17.8577 223.815 19.3627L223.892 19.3ZM218.069 16.996V16.896C216.348 16.896 214.878 17.2618 213.665 17.9985L213.716 18.084L213.768 18.1695C214.944 17.4555 216.376 17.096 218.069 17.096V16.996ZM213.716 18.084L213.667 17.9972C212.446 18.6947 211.516 19.9115 210.871 21.6329L210.965 21.668L211.058 21.7031C211.693 20.0111 212.597 18.8386 213.766 18.1708L213.716 18.084ZM210.965 21.668L210.87 21.6342C210.267 23.3139 209.968 25.6311 209.968 28.58H210.069H210.168C210.168 25.6409 210.467 23.3501 211.059 21.7018L210.965 21.668ZM210.069 28.58H209.968C209.968 32.1781 210.804 34.9362 212.49 36.8383L212.564 36.772L212.639 36.7057C210.997 34.8531 210.168 32.1499 210.168 28.58H210.069ZM212.564 36.772L212.49 36.8392C214.179 38.7007 216.663 39.624 219.924 39.624V39.524V39.424C216.701 39.424 214.278 38.5126 212.639 36.7048L212.564 36.772ZM219.924 39.524V39.624C221.381 39.624 222.732 39.4955 223.977 39.2379L223.957 39.14L223.936 39.0421C222.706 39.2965 221.369 39.424 219.924 39.424V39.524ZM223.957 39.14L223.976 39.2381C225.26 38.9812 226.438 38.66 227.51 38.2741L227.476 38.18L227.443 38.0859C226.381 38.468 225.213 38.7868 223.937 39.0419L223.957 39.14ZM227.476 38.18L227.514 38.2729C228.582 37.8455 229.502 37.439 230.273 37.0534L230.228 36.964L230.184 36.8746C229.419 37.257 228.504 37.6612 227.439 38.0872L227.476 38.18ZM230.228 36.964H230.129V43.172H230.228H230.328V36.964H230.228ZM230.228 43.172L230.189 43.0801C228.703 43.717 227.024 44.2272 225.152 44.61L225.172 44.708L225.193 44.806C227.075 44.4208 228.767 43.907 230.268 43.2639L230.228 43.172ZM225.172 44.708L225.15 44.6105C223.282 45.0352 221.177 45.248 218.836 45.248V45.348V45.448C221.189 45.448 223.309 45.2341 225.195 44.8055L225.172 44.708ZM260.879 44.388L260.786 44.4235L260.81 44.488H260.879V44.388ZM244.687 1.7V1.6H244.542L244.594 1.73546L244.687 1.7ZM252.623 1.7L252.717 1.66604L252.693 1.6H252.623V1.7ZM266.255 39.46V39.56H266.397L266.349 39.426L266.255 39.46ZM263.887 39.46L263.793 39.4264L263.745 39.56H263.887V39.46ZM277.327 1.764L277.326 1.66401L277.256 1.6646L277.233 1.73042L277.327 1.764ZM284.751 1.7L284.844 1.73619L284.898 1.59873L284.75 1.6L284.751 1.7ZM268.175 44.388V44.488H268.243L268.268 44.4242L268.175 44.388ZM260.879 44.388L260.972 44.3525L244.781 1.66453L244.687 1.7L244.594 1.73546L260.786 44.4235L260.879 44.388ZM244.687 1.7V1.8H252.623V1.7V1.6H244.687V1.7ZM252.623 1.7L252.529 1.73396L266.161 39.494L266.255 39.46L266.349 39.426L252.717 1.66604L252.623 1.7ZM266.255 39.46V39.36H263.887V39.46V39.56H266.255V39.46ZM263.887 39.46L263.981 39.4936L277.421 1.79758L277.327 1.764L277.233 1.73042L263.793 39.4264L263.887 39.46ZM277.327 1.764L277.328 1.86399L284.752 1.79999L284.751 1.7L284.75 1.6L277.326 1.66401L277.327 1.764ZM284.751 1.7L284.658 1.6638L268.082 44.3518L268.175 44.388L268.268 44.4242L284.844 1.73619L284.751 1.7ZM268.175 44.388V44.288H260.879V44.388V44.488H268.175V44.388ZM285.657 44.388H285.557V44.488H285.657V44.388ZM285.657 12.452V12.352H285.557V12.452H285.657ZM292.377 12.452L292.477 12.4518L292.477 12.352H292.377V12.452ZM292.441 44.388V44.488H292.541L292.541 44.3878L292.441 44.388ZM285.465 7.14H285.365V7.24H285.465V7.14ZM285.465 1.06V0.959999H285.365V1.06H285.465ZM292.633 1.06H292.733V0.959999H292.633V1.06ZM292.633 7.14V7.24H292.733V7.14H292.633ZM285.657 44.388H285.757V12.452H285.657H285.557V44.388H285.657ZM285.657 12.452V12.552H292.377V12.452V12.352H285.657V12.452ZM292.377 12.452L292.277 12.4522L292.341 44.3882L292.441 44.388L292.541 44.3878L292.477 12.4518L292.377 12.452ZM292.441 44.388V44.288H285.657V44.388V44.488H292.441V44.388ZM285.465 7.14H285.565V1.06H285.465H285.365V7.14H285.465ZM285.465 1.06V1.16H292.633V1.06V0.959999H285.465V1.06ZM292.633 1.06H292.533V7.14H292.633H292.733V1.06H292.633ZM292.633 7.14V7.04H285.465V7.14V7.24H292.633V7.14ZM300.362 44.58L300.392 44.4846L300.39 44.4841L300.362 44.58ZM295.69 42.788H295.59V42.8514L295.647 42.8784L295.69 42.788ZM295.69 36.452L295.742 36.3668L295.59 36.273V36.452H295.69ZM298.954 38.308L298.908 38.3968L298.911 38.3982L298.954 38.308ZM302.282 39.524L302.257 39.6208L302.258 39.621L302.282 39.524ZM310.538 38.82L310.48 38.7388L310.478 38.74L310.538 38.82ZM311.114 33.636L311.048 33.7116L311.051 33.7136L311.114 33.636ZM308.618 32.228L308.653 32.1344V32.1344L308.618 32.228ZM305.418 31.076L305.451 30.9812L305.443 30.9792L305.418 31.076ZM301.962 30.052L301.927 30.1458L301.93 30.1469L301.962 30.052ZM298.762 28.388L298.701 28.4672L298.705 28.4701L298.762 28.388ZM296.458 25.636L296.369 25.6807L296.37 25.6834L296.458 25.636ZM296.714 16.996L296.8 17.0466L296.801 17.0453L296.714 16.996ZM299.53 13.924L299.585 14.0072L299.586 14.0067L299.53 13.924ZM303.434 12.196L303.458 12.2932L303.46 12.2927L303.434 12.196ZM307.658 11.62L307.66 11.52H307.658V11.62ZM313.162 12.452L313.128 12.546L313.129 12.5463L313.162 12.452ZM317.386 14.308L317.486 14.3069L317.485 14.2475L317.433 14.2197L317.386 14.308ZM317.45 20.068L317.403 20.1564L317.552 20.2348L317.55 20.0669L317.45 20.068ZM304.202 18.02L304.249 18.1081L304.252 18.1066L304.202 18.02ZM303.434 23.14L303.363 23.2108L303.366 23.2131L303.434 23.14ZM305.866 24.548L305.833 24.6425L305.834 24.6429L305.866 24.548ZM309.13 25.572L309.16 25.4767L309.158 25.4761L309.13 25.572ZM312.458 26.66L312.426 26.7549L312.43 26.7559L312.458 26.66ZM318.026 30.884L317.938 30.9314L317.939 30.934L318.026 30.884ZM318.986 35.236L319.086 35.2378V35.236H318.986ZM317.066 41.06L316.989 40.9962L316.988 40.9975L317.066 41.06ZM312.33 44.324L312.363 44.4184L312.33 44.324ZM306.25 45.348V45.248C303.953 45.248 302.001 44.9927 300.392 44.4846L300.362 44.58L300.332 44.6754C301.966 45.1913 303.939 45.448 306.25 45.448V45.348ZM300.362 44.58L300.39 44.4841C298.817 44.0163 297.264 43.4208 295.733 42.6976L295.69 42.788L295.647 42.8784C297.188 43.6059 298.75 44.205 300.334 44.6759L300.362 44.58ZM295.69 42.788H295.79V36.452H295.69H295.59V42.788H295.69ZM295.69 36.452L295.638 36.5372C296.749 37.221 297.839 37.8409 298.908 38.3967L298.954 38.308L299 38.2193C297.936 37.6658 296.85 37.0483 295.742 36.3668L295.69 36.452ZM298.954 38.308L298.911 38.3982C299.983 38.913 301.099 39.3205 302.257 39.6208L302.282 39.524L302.307 39.4272C301.161 39.1301 300.058 38.727 298.997 38.2178L298.954 38.308ZM302.282 39.524L302.258 39.621C303.462 39.922 304.793 40.072 306.25 40.072V39.972V39.872C304.806 39.872 303.492 39.7234 302.306 39.427L302.282 39.524ZM306.25 39.972V40.072C308.097 40.072 309.551 39.6855 310.598 38.9L310.538 38.82L310.478 38.74C309.477 39.4905 308.072 39.872 306.25 39.872V39.972ZM310.538 38.82L310.596 38.9012C311.685 38.1174 312.238 37.129 312.238 35.94H312.138H312.038C312.038 37.055 311.524 37.9866 310.48 38.7388L310.538 38.82ZM312.138 35.94H312.238C312.238 34.9325 311.886 34.1344 311.177 33.5584L311.114 33.636L311.051 33.7136C311.707 34.2469 312.038 34.9848 312.038 35.94H312.138ZM311.114 33.636L311.179 33.5604C310.528 32.9961 309.685 32.5214 308.653 32.1344L308.618 32.228L308.583 32.3216C309.599 32.7026 310.42 33.1666 311.049 33.7116L311.114 33.636ZM308.618 32.228L308.653 32.1344C307.628 31.75 306.561 31.3658 305.451 30.9815L305.418 31.076L305.385 31.1705C306.494 31.5542 307.56 31.938 308.583 32.3216L308.618 32.228ZM305.418 31.076L305.443 30.9792C304.293 30.6811 303.144 30.3404 301.994 29.9571L301.962 30.052L301.93 30.1469C303.084 30.5316 304.239 30.8736 305.393 31.1728L305.418 31.076ZM301.962 30.052L301.997 29.9582C300.852 29.5344 299.793 28.9836 298.819 28.3059L298.762 28.388L298.705 28.4701C299.693 29.1577 300.768 29.7163 301.927 30.1458L301.962 30.052ZM298.762 28.388L298.823 28.3089C297.896 27.5926 297.137 26.6864 296.546 25.5886L296.458 25.636L296.37 25.6834C296.974 26.8043 297.75 27.7327 298.701 28.4671L298.762 28.388ZM296.458 25.636L296.547 25.5913C296.002 24.4994 295.726 23.1504 295.726 21.54H295.626H295.526C295.526 23.1723 295.805 24.5539 296.369 25.6807L296.458 25.636ZM295.626 21.54H295.726C295.726 19.7614 296.086 18.2652 296.8 17.0466L296.714 16.996L296.628 16.9454C295.891 18.2015 295.526 19.7346 295.526 21.54H295.626ZM296.714 16.996L296.801 17.0453C297.519 15.778 298.447 14.766 299.585 14.0072L299.53 13.924L299.475 13.8408C298.309 14.618 297.36 15.654 296.627 16.9467L296.714 16.996ZM299.53 13.924L299.586 14.0067C300.771 13.2028 302.061 12.6317 303.458 12.2932L303.434 12.196L303.41 12.0988C301.991 12.443 300.678 13.0238 299.474 13.8413L299.53 13.924ZM303.434 12.196L303.46 12.2927C304.903 11.9107 306.302 11.72 307.658 11.72V11.62V11.52C306.283 11.52 304.867 11.7133 303.408 12.0993L303.434 12.196ZM307.658 11.62L307.656 11.72C309.911 11.7625 311.734 12.0391 313.128 12.546L313.162 12.452L313.196 12.358C311.774 11.8409 309.927 11.5628 307.66 11.52L307.658 11.62ZM313.162 12.452L313.129 12.5463C314.575 13.0566 315.978 13.6733 317.339 14.3963L317.386 14.308L317.433 14.2197C316.063 13.492 314.651 12.8714 313.195 12.3577L313.162 12.452ZM317.386 14.308L317.286 14.3091L317.35 20.0691L317.45 20.068L317.55 20.0669L317.486 14.3069L317.386 14.308ZM317.45 20.068L317.497 19.9796C315.959 19.1679 314.506 18.4628 313.138 17.8644L313.098 17.956L313.058 18.0476C314.421 18.6438 315.869 19.3467 317.403 20.1564L317.45 20.068ZM313.098 17.956L313.138 17.8644C311.758 17.2605 310.165 16.96 308.362 16.96V17.06V17.16C310.143 17.16 311.708 17.4568 313.058 18.0476L313.098 17.956ZM308.362 17.06V16.96C306.686 16.96 305.28 17.2824 304.152 17.9334L304.202 18.02L304.252 18.1066C305.342 17.4776 306.71 17.16 308.362 17.16V17.06ZM304.202 18.02L304.155 17.932C303.588 18.2373 303.157 18.6218 302.869 19.0874C302.581 19.5532 302.438 20.0946 302.438 20.708H302.538H302.638C302.638 20.1267 302.773 19.6228 303.039 19.1926C303.305 18.7622 303.707 18.4 304.249 18.108L304.202 18.02ZM302.538 20.708H302.438C302.438 21.7525 302.743 22.5908 303.363 23.2107L303.434 23.14L303.505 23.0693C302.93 22.4946 302.638 21.7115 302.638 20.708H302.538ZM303.434 23.14L303.366 23.2131C304.018 23.8215 304.841 24.2974 305.833 24.6424L305.866 24.548L305.899 24.4536C304.928 24.116 304.13 23.6531 303.502 23.0669L303.434 23.14ZM305.866 24.548L305.834 24.6429C306.86 24.9846 307.949 25.3263 309.102 25.6679L309.13 25.572L309.158 25.4761C308.007 25.1351 306.92 24.7941 305.898 24.4531L305.866 24.548ZM309.13 25.572L309.1 25.6672C310.166 26.0084 311.275 26.371 312.426 26.7549L312.458 26.66L312.49 26.5651C311.337 26.181 310.228 25.8182 309.16 25.4768L309.13 25.572ZM312.458 26.66L312.43 26.7559C313.571 27.0942 314.628 27.6016 315.601 28.2781L315.658 28.196L315.715 28.1139C314.725 27.4251 313.649 26.9085 312.486 26.5641L312.458 26.66ZM315.658 28.196L315.601 28.2781C316.569 28.9513 317.348 29.8351 317.938 30.9314L318.026 30.884L318.114 30.8366C317.51 29.7142 316.71 28.806 315.715 28.1139L315.658 28.196ZM318.026 30.884L317.939 30.934C318.568 32.0232 318.886 33.4549 318.886 35.236H318.986H319.086C319.086 33.4331 318.764 31.9634 318.113 30.834L318.026 30.884ZM318.986 35.236L318.886 35.2342C318.844 37.6063 318.209 39.5241 316.989 40.9962L317.066 41.06L317.143 41.1238C318.398 39.6092 319.043 37.6444 319.086 35.2378L318.986 35.236ZM317.066 41.06L316.988 40.9975C315.806 42.4749 314.244 43.5525 312.297 44.2295L312.33 44.324L312.363 44.4184C314.342 43.7302 315.937 42.6318 317.144 41.1225L317.066 41.06ZM312.33 44.324L312.297 44.2295C310.345 44.9085 308.33 45.248 306.25 45.248V45.348V45.448C308.352 45.448 310.39 45.1048 312.363 44.4184L312.33 44.324ZM321.917 44.388H321.817V44.488H321.917V44.388ZM321.917 12.452V12.352H321.817V12.452H321.917ZM328.637 12.452L328.737 12.4518L328.737 12.352H328.637V12.452ZM328.701 44.388V44.488H328.801L328.801 44.3878L328.701 44.388ZM321.725 7.14H321.625V7.24H321.725V7.14ZM321.725 1.06V0.959999H321.625V1.06H321.725ZM328.893 1.06H328.993V0.959999H328.893V1.06ZM328.893 7.14V7.24H328.993V7.14H328.893ZM321.917 44.388H322.017V12.452H321.917H321.817V44.388H321.917ZM321.917 12.452V12.552H328.637V12.452V12.352H321.917V12.452ZM328.637 12.452L328.537 12.4522L328.601 44.3882L328.701 44.388L328.801 44.3878L328.737 12.4518L328.637 12.452ZM328.701 44.388V44.288H321.917V44.388V44.488H328.701V44.388ZM321.725 7.14H321.825V1.06H321.725H321.625V7.14H321.725ZM321.725 1.06V1.16H328.893V1.06V0.959999H321.725V1.06ZM328.893 1.06H328.793V7.14H328.893H328.993V1.06H328.893ZM328.893 7.14V7.04H321.725V7.14V7.24H328.893V7.14ZM337.774 42.916L337.706 42.9895L337.707 42.9903L337.774 42.916ZM335.278 17.828H335.378V17.728H335.278V17.828ZM330.094 17.828H329.994V17.928H330.094V17.828ZM330.094 12.26V12.16H329.994V12.26H330.094ZM335.278 12.26V12.36H335.378V12.26H335.278ZM335.278 3.3V3.2H335.178V3.3H335.278ZM342.19 3.3H342.29V3.2H342.19V3.3ZM342.19 12.26H342.09V12.36H342.19V12.26ZM349.998 12.26H350.098V12.16H349.998V12.26ZM349.998 17.828V17.928H350.098V17.828H349.998ZM342.19 17.828V17.728H342.09V17.828H342.19ZM342.958 38.18L342.875 38.2356L342.879 38.2407L342.958 38.18ZM348.142 39.012L348.165 39.1095L348.17 39.1079L348.142 39.012ZM349.998 38.244H350.098V38.0699L349.948 38.1576L349.998 38.244ZM349.998 44.196L350.039 44.2874L350.098 44.261V44.196H349.998ZM347.374 44.964L347.357 44.8655L347.356 44.8656L347.374 44.964ZM344.686 45.22V45.12C341.803 45.12 339.525 44.3571 337.841 42.8417L337.774 42.916L337.707 42.9903C339.437 44.5469 341.767 45.32 344.686 45.32V45.22ZM337.774 42.916L337.842 42.8425C336.204 41.331 335.378 39.1001 335.378 36.132H335.278H335.178C335.178 39.1372 336.016 41.429 337.706 42.9895L337.774 42.916ZM335.278 36.132H335.378V17.828H335.278H335.178V36.132H335.278ZM335.278 17.828V17.728H330.094V17.828V17.928H335.278V17.828ZM330.094 17.828H330.194V12.26H330.094H329.994V17.828H330.094ZM330.094 12.26V12.36H335.278V12.26V12.16H330.094V12.26ZM335.278 12.26H335.378V3.3H335.278H335.178V12.26H335.278ZM335.278 3.3V3.4H342.19V3.3V3.2H335.278V3.3ZM342.19 3.3H342.09V12.26H342.19H342.29V3.3H342.19ZM342.19 12.26V12.36H349.998V12.26V12.16H342.19V12.26ZM349.998 12.26H349.898V17.828H349.998H350.098V12.26H349.998ZM349.998 17.828V17.728H342.19V17.828V17.928H349.998V17.828ZM342.19 17.828H342.09V34.788H342.19H342.29V17.828H342.19ZM342.19 34.788H342.09C342.09 36.29 342.347 37.4438 342.875 38.2355L342.958 38.18L343.041 38.1245C342.545 37.3802 342.29 36.2727 342.29 34.788H342.19ZM342.958 38.18L342.879 38.2407C343.461 39.0025 344.503 39.368 345.966 39.368V39.268V39.168C344.528 39.168 343.564 38.8081 343.037 38.1193L342.958 38.18ZM345.966 39.268V39.368C346.699 39.368 347.432 39.2817 348.165 39.1093L348.142 39.012L348.119 38.9147C347.401 39.0836 346.683 39.168 345.966 39.168V39.268ZM348.142 39.012L348.17 39.1079C348.901 38.8929 349.528 38.6341 350.048 38.3304L349.998 38.244L349.948 38.1576C349.444 38.4513 348.833 38.7044 348.114 38.9161L348.142 39.012ZM349.998 38.244H349.898V44.196H349.998H350.098V38.244H349.998ZM349.998 44.196L349.957 44.1046C349.198 44.4421 348.332 44.696 347.357 44.8655L347.374 44.964L347.391 45.0625C348.379 44.8907 349.262 44.6326 350.039 44.2874L349.998 44.196ZM347.374 44.964L347.356 44.8656C346.423 45.0353 345.533 45.12 344.686 45.12V45.22V45.32C345.546 45.32 346.448 45.234 347.392 45.0624L347.374 44.964ZM376.172 44.388H376.072V44.488H376.172V44.388ZM376.172 7.652H376.272V7.552H376.172V7.652ZM362.348 7.652H362.248V7.752H362.348V7.652ZM362.348 1.7V1.6H362.248V1.7H362.348ZM397.036 1.7H397.136V1.6H397.036V1.7ZM397.036 7.652V7.752H397.136V7.652H397.036ZM383.212 7.652V7.552H383.112V7.652H383.212ZM383.212 44.388V44.488H383.312V44.388H383.212ZM376.172 44.388H376.272V7.652H376.172H376.072V44.388H376.172ZM376.172 7.652V7.552H362.348V7.652V7.752H376.172V7.652ZM362.348 7.652H362.448V1.7H362.348H362.248V7.652H362.348ZM362.348 1.7V1.8H397.036V1.7V1.6H362.348V1.7ZM397.036 1.7H396.936V7.652H397.036H397.136V1.7H397.036ZM397.036 7.652V7.552H383.212V7.652V7.752H397.036V7.652ZM383.212 7.652H383.112V44.388H383.212H383.312V7.652H383.212ZM383.212 44.388V44.288H376.172V44.388V44.488H383.212V44.388ZM394.232 40.932L394.156 40.997L394.157 40.9976L394.232 40.932ZM394.36 15.588L394.288 15.5184L394.288 15.5184L394.36 15.588ZM414.52 13.476L414.47 13.5627L414.471 13.5634L414.52 13.476ZM419.64 19.172L419.548 19.2123V19.2123L419.64 19.172ZM417.272 40.932L417.198 40.8651L417.198 40.8652L417.272 40.932ZM411 38.244L411.059 38.3247L411.061 38.3234L411 38.244ZM413.752 34.212L413.658 34.179L413.657 34.1811L413.752 34.212ZM410.936 18.404L410.881 18.4872L410.882 18.4885L410.936 18.404ZM400.696 18.468L400.639 18.3861V18.3861L400.696 18.468ZM397.944 22.308L397.849 22.2764V22.2764L397.944 22.308ZM405.88 45.348V45.248C400.693 45.248 396.843 43.7819 394.307 40.8664L394.232 40.932L394.157 40.9976C396.741 43.9701 400.656 45.448 405.88 45.448V45.348ZM394.232 40.932L394.308 40.867C391.811 37.9473 390.556 33.7712 390.556 28.324H390.456H390.356C390.356 33.7995 391.618 38.0287 394.156 40.997L394.232 40.932ZM390.456 28.324H390.556C390.556 22.5334 391.855 18.3189 394.432 15.6576L394.36 15.588L394.288 15.5184C391.66 18.2331 390.356 22.5092 390.356 28.324H390.456ZM394.36 15.588L394.432 15.6576C397.053 12.9517 400.821 11.592 405.752 11.592V11.492V11.392C400.784 11.392 396.958 12.7629 394.288 15.5184L394.36 15.588ZM405.752 11.492V11.592C409.281 11.592 412.186 12.2512 414.47 13.5627L414.52 13.476L414.57 13.3893C412.246 12.0555 409.305 11.392 405.752 11.392V11.492ZM414.52 13.476L414.471 13.5634C416.755 14.8323 418.448 16.714 419.548 19.2123L419.64 19.172L419.731 19.1317C418.614 16.5953 416.893 14.6797 414.569 13.3886L414.52 13.476ZM419.64 19.172L419.548 19.2123C420.651 21.7137 421.204 24.7499 421.204 28.324H421.304H421.404C421.404 24.7301 420.848 21.6649 419.731 19.1317L419.64 19.172ZM421.304 28.324H421.204C421.204 33.7267 419.864 37.9024 417.198 40.8651L417.272 40.932L417.346 40.9989C420.056 37.9883 421.404 33.7586 421.404 28.324H421.304ZM417.272 40.932L417.198 40.8652C414.576 43.783 410.809 45.248 405.88 45.248V45.348V45.448C410.85 45.448 414.678 43.969 417.346 40.9988L417.272 40.932ZM405.816 39.652V39.752C408.006 39.752 409.757 39.2798 411.059 38.3246L411 38.244L410.941 38.1634C409.683 39.0855 407.978 39.552 405.816 39.552V39.652ZM411 38.244L411.061 38.3234C412.359 37.3283 413.287 35.9666 413.847 34.2429L413.752 34.212L413.657 34.1811C413.108 35.8708 412.201 37.197 410.939 38.1646L411 38.244ZM413.752 34.212L413.846 34.245C414.448 32.5257 414.748 30.5515 414.748 28.324H414.648H414.548C414.548 30.5339 414.25 32.485 413.658 34.179L413.752 34.212ZM414.648 28.324H414.748C414.748 25.8421 414.449 23.7604 413.846 22.0822L413.752 22.116L413.658 22.1498C414.25 23.7996 414.548 25.8566 414.548 28.324H414.648ZM413.752 22.116L413.846 22.0822C413.243 20.4009 412.291 19.144 410.989 18.3195L410.936 18.404L410.882 18.4885C412.141 19.2853 413.067 20.5031 413.658 22.1498L413.752 22.116ZM410.936 18.404L410.991 18.3208C409.69 17.453 407.962 17.024 405.816 17.024V17.124V17.224C407.937 17.224 409.622 17.6483 410.881 18.4872L410.936 18.404ZM405.816 17.124V17.024C403.669 17.024 401.941 17.4747 400.639 18.3861L400.696 18.468L400.753 18.5499C402.011 17.6693 403.696 17.224 405.816 17.224V17.124ZM400.696 18.468L400.639 18.3861C399.339 19.2959 398.41 20.5946 397.849 22.2764L397.944 22.308L398.039 22.3396C398.588 20.6934 399.493 19.4321 400.753 18.5499L400.696 18.468ZM397.944 22.308L397.849 22.2764C397.29 23.9534 397.012 25.97 397.012 28.324H397.112H397.212C397.212 25.9847 397.489 23.9906 398.039 22.3396L397.944 22.308ZM397.112 28.324H397.012C397.012 31.8761 397.675 34.6714 399.013 36.6991L399.096 36.644L399.179 36.5889C397.872 34.606 397.212 31.8545 397.212 28.324H397.112ZM399.096 36.644L399.013 36.6991C400.359 38.741 402.637 39.752 405.816 39.752V39.652V39.552C402.68 39.552 400.478 38.5576 399.179 36.5889L399.096 36.644ZM426.112 40.932L426.036 40.997L426.037 40.9976L426.112 40.932ZM426.24 15.588L426.168 15.5184L426.168 15.5184L426.24 15.588ZM446.4 13.476L446.35 13.5627L446.351 13.5634L446.4 13.476ZM451.52 19.172L451.428 19.2123V19.2123L451.52 19.172ZM449.152 40.932L449.078 40.8651L449.078 40.8652L449.152 40.932ZM442.88 38.244L442.939 38.3247L442.941 38.3234L442.88 38.244ZM445.632 34.212L445.538 34.179L445.537 34.1811L445.632 34.212ZM442.816 18.404L442.761 18.4872L442.763 18.4885L442.816 18.404ZM432.576 18.468L432.519 18.3861V18.3861L432.576 18.468ZM429.824 22.308L429.729 22.2764V22.2764L429.824 22.308ZM437.76 45.348V45.248C432.573 45.248 428.723 43.7819 426.187 40.8664L426.112 40.932L426.037 40.9976C428.621 43.9701 432.536 45.448 437.76 45.448V45.348ZM426.112 40.932L426.188 40.867C423.691 37.9473 422.436 33.7712 422.436 28.324H422.336H422.236C422.236 33.7995 423.498 38.0287 426.036 40.997L426.112 40.932ZM422.336 28.324H422.436C422.436 22.5334 423.735 18.3189 426.312 15.6576L426.24 15.588L426.168 15.5184C423.54 18.2331 422.236 22.5092 422.236 28.324H422.336ZM426.24 15.588L426.312 15.6576C428.933 12.9517 432.701 11.592 437.632 11.592V11.492V11.392C432.664 11.392 428.838 12.7629 426.168 15.5184L426.24 15.588ZM437.632 11.492V11.592C441.161 11.592 444.066 12.2512 446.35 13.5627L446.4 13.476L446.45 13.3893C444.126 12.0555 441.185 11.392 437.632 11.392V11.492ZM446.4 13.476L446.351 13.5634C448.635 14.8323 450.328 16.714 451.428 19.2123L451.52 19.172L451.612 19.1317C450.494 16.5953 448.773 14.6797 446.449 13.3886L446.4 13.476ZM451.52 19.172L451.428 19.2123C452.531 21.7137 453.084 24.7499 453.084 28.324H453.184H453.284C453.284 24.7301 452.728 21.6649 451.612 19.1317L451.52 19.172ZM453.184 28.324H453.084C453.084 33.7267 451.744 37.9024 449.078 40.8651L449.152 40.932L449.226 40.9989C451.936 37.9883 453.284 33.7586 453.284 28.324H453.184ZM449.152 40.932L449.078 40.8652C446.456 43.783 442.689 45.248 437.76 45.248V45.348V45.448C442.73 45.448 446.558 43.969 449.226 40.9988L449.152 40.932ZM437.696 39.652V39.752C439.886 39.752 441.637 39.2798 442.939 38.3246L442.88 38.244L442.821 38.1634C441.563 39.0855 439.858 39.552 437.696 39.552V39.652ZM442.88 38.244L442.941 38.3234C444.239 37.3283 445.167 35.9666 445.727 34.2429L445.632 34.212L445.537 34.1811C444.988 35.8708 444.081 37.197 442.819 38.1646L442.88 38.244ZM445.632 34.212L445.726 34.245C446.328 32.5257 446.628 30.5515 446.628 28.324H446.528H446.428C446.428 30.5339 446.13 32.485 445.538 34.179L445.632 34.212ZM446.528 28.324H446.628C446.628 25.8421 446.329 23.7604 445.726 22.0822L445.632 22.116L445.538 22.1498C446.13 23.7996 446.428 25.8566 446.428 28.324H446.528ZM445.632 22.116L445.726 22.0822C445.123 20.4009 444.171 19.144 442.869 18.3195L442.816 18.404L442.763 18.4885C444.021 19.2853 444.947 20.5031 445.538 22.1498L445.632 22.116ZM442.816 18.404L442.871 18.3208C441.57 17.453 439.842 17.024 437.696 17.024V17.124V17.224C439.817 17.224 441.502 17.6483 442.761 18.4872L442.816 18.404ZM437.696 17.124V17.024C435.549 17.024 433.821 17.4747 432.519 18.3861L432.576 18.468L432.633 18.5499C433.891 17.6693 435.576 17.224 437.696 17.224V17.124ZM432.576 18.468L432.519 18.3861C431.219 19.2959 430.29 20.5946 429.729 22.2764L429.824 22.308L429.919 22.3396C430.468 20.6934 431.373 19.4321 432.633 18.5499L432.576 18.468ZM429.824 22.308L429.729 22.2764C429.17 23.9534 428.892 25.97 428.892 28.324H428.992H429.092C429.092 25.9847 429.369 23.9906 429.919 22.3396L429.824 22.308ZM428.992 28.324H428.892C428.892 31.8761 429.555 34.6714 430.893 36.6991L430.976 36.644L431.059 36.5889C429.752 34.606 429.092 31.8545 429.092 28.324H428.992ZM430.976 36.644L430.893 36.6991C432.239 38.741 434.517 39.752 437.696 39.752V39.652V39.552C434.56 39.552 432.358 38.5576 431.059 36.5889L430.976 36.644ZM462.536 44.388V44.488H462.636V44.388H462.536ZM455.88 44.388H455.78V44.488H455.88V44.388ZM455.88 0.0999985V0H455.78V0.0999985H455.88ZM462.536 0.0999985H462.636V0H462.536V0.0999985ZM462.536 44.388V44.288H455.88V44.388V44.488H462.536V44.388ZM455.88 44.388H455.98V0.0999985H455.88H455.78V44.388H455.88ZM455.88 0.0999985V0.199997H462.536V0.0999985V0H455.88V0.0999985ZM462.536 0.0999985H462.436V44.388H462.536H462.636V0.0999985H462.536Z" fill="#555555" mask="url(#path-1-outside-1_1_2)"/>
</svg>
